<svg width="90.000000" height="90.000000" viewBox="0 0 90 90" fill="none" xmlns="http://www.w3.org/2000/svg" xmlns:xlink="http://www.w3.org/1999/xlink">
	<desc>
			Created with Pixso.
	</desc>
	<defs>
		<clipPath id="clip10_5811">
			<rect id="Layer_1" rx="0.000000" width="89.000000" height="89.000000" transform="translate(0.500000 0.500000)" fill="white" fill-opacity="0"/>
		</clipPath>
	</defs>
	<rect id="Layer_1" rx="0.000000" width="89.000000" height="89.000000" transform="translate(0.500000 0.500000)" fill="#FFFFFF" fill-opacity="0"/>
	<g clip-path="url(#clip10_5811)">
		<path id="Vector" d="M46.91 26L46.91 45.05L41.66 45.05L41.66 26L46.91 26ZM48.44 24.47L40.12 24.47L40.12 46.58L48.44 46.58L48.44 24.47Z" fill="#E0E1E8" fill-opacity="1.000000" fill-rule="nonzero"/>
		<path id="Vector" d="M55.67 11.11L32.9 11.11L32.9 14.29L29.18 14.29L29.18 11.11L22.61 11.11C22.37 11.11 22.15 11.2 21.99 11.37C21.82 11.53 21.73 11.75 21.73 11.99L21.73 25.13C21.73 25.36 21.82 25.59 21.99 25.75C22.15 25.91 22.37 26.01 22.61 26.01L29.18 26.01L29.18 23.05L32.9 23.05L32.9 26.01L55.67 26.01L55.67 18.67L68.26 23.16L68.26 20.23C68.26 18.87 67.84 17.55 67.06 16.45C66.28 15.34 65.18 14.5 63.9 14.04L55.67 11.11Z" fill="#091054" fill-opacity="1.000000" fill-rule="nonzero"/>
		<path id="Vector" d="M46.91 5.75L46.91 7.88L41.66 7.88L41.66 5.75L46.91 5.75ZM47.92 4.21L40.64 4.21C40.58 4.21 40.51 4.22 40.44 4.25C40.38 4.28 40.32 4.32 40.27 4.36C40.23 4.41 40.19 4.47 40.16 4.53C40.14 4.6 40.12 4.66 40.12 4.73L40.12 9.41L48.44 9.41L48.44 4.73C48.44 4.66 48.43 4.6 48.4 4.53C48.38 4.47 48.34 4.41 48.29 4.36C48.24 4.32 48.19 4.28 48.12 4.25C48.06 4.23 47.99 4.21 47.92 4.21Z" fill="#E0E1E8" fill-opacity="1.000000" fill-rule="nonzero"/>
		<path id="Vector" d="M50.47 48.55L38.1 48.55C37.93 48.55 37.77 48.59 37.62 48.65C37.46 48.71 37.32 48.8 37.21 48.92C37.09 49.04 37 49.18 36.93 49.33C36.87 49.48 36.84 49.65 36.84 49.81L36.84 84.52C36.84 84.68 36.87 84.85 36.93 85C37 85.15 37.09 85.29 37.21 85.41C37.32 85.53 37.46 85.62 37.62 85.68C37.77 85.75 37.93 85.78 38.1 85.78L50.47 85.78C50.63 85.78 50.8 85.75 50.95 85.68C51.1 85.62 51.24 85.53 51.36 85.41C51.48 85.29 51.57 85.15 51.63 85C51.7 84.85 51.73 84.68 51.73 84.52L51.73 49.81C51.73 49.65 51.7 49.48 51.63 49.33C51.57 49.18 51.48 49.04 51.36 48.92C51.24 48.8 51.1 48.71 50.95 48.65C50.8 48.59 50.63 48.55 50.47 48.55ZM42.09 81.62C42.09 81.88 41.99 82.13 41.81 82.31C41.62 82.5 41.37 82.6 41.11 82.6C40.85 82.6 40.6 82.5 40.41 82.31C40.23 82.13 40.12 81.88 40.12 81.62L40.12 53.92C40.12 53.66 40.23 53.41 40.41 53.22C40.6 53.04 40.85 52.93 41.11 52.93C41.37 52.93 41.62 53.04 41.81 53.22C41.99 53.41 42.09 53.66 42.09 53.92L42.09 81.62Z" fill="#091054" fill-opacity="1.000000" fill-rule="nonzero"/>
	</g>
</svg>
