<svg width="90.000000" height="90.000000" viewBox="0 0 90 90" fill="none" xmlns="http://www.w3.org/2000/svg" xmlns:xlink="http://www.w3.org/1999/xlink">
	<desc>
			Created with Pixso.
	</desc>
	<defs>
		<clipPath id="clip10_5724">
			<rect id="Layer_1" rx="0.000000" width="89.000000" height="89.000000" transform="translate(0.500000 0.500000)" fill="white" fill-opacity="0"/>
		</clipPath>
	</defs>
	<rect id="Layer_1" rx="0.000000" width="89.000000" height="89.000000" transform="translate(0.500000 0.500000)" fill="#FFFFFF" fill-opacity="0"/>
	<g clip-path="url(#clip10_5724)">
		<path id="Vector" d="M76.29 4.76C76.06 4.52 75.78 4.32 75.46 4.19C75.15 4.06 74.81 3.99 74.47 4L15.51 4C15.17 4 14.84 4.06 14.52 4.19C14.21 4.33 13.93 4.52 13.69 4.76C13.46 5 13.28 5.29 13.16 5.6C13.04 5.91 12.98 6.25 13 6.58L14.17 33.27L17.86 33.27C18.58 33.27 19.3 33.41 19.97 33.69C20.63 33.97 21.23 34.38 21.74 34.9C22.24 35.41 22.63 36.02 22.88 36.69C23.14 37.36 23.25 38.07 23.22 38.78L22.83 48L67.17 48L66.77 38.78C66.74 38.07 66.85 37.36 67.11 36.69C67.37 36.02 67.76 35.41 68.26 34.9C68.76 34.38 69.36 33.97 70.03 33.69C70.69 33.41 71.41 33.27 72.13 33.27L75.82 33.27L76.99 6.58C77.01 6.25 76.95 5.91 76.83 5.6C76.71 5.29 76.53 5 76.29 4.76ZM33.17 38.08C32.6 38.08 32.05 37.91 31.58 37.6C31.11 37.29 30.75 36.86 30.53 36.34C30.31 35.83 30.26 35.26 30.37 34.72C30.48 34.17 30.75 33.67 31.15 33.28C31.55 32.88 32.05 32.62 32.61 32.51C33.16 32.4 33.73 32.45 34.25 32.67C34.78 32.88 35.22 33.24 35.53 33.7C35.85 34.16 36.02 34.71 36.02 35.26C36.02 36.01 35.71 36.72 35.18 37.25C34.65 37.78 33.92 38.08 33.17 38.08ZM33.17 20.5C32.6 20.5 32.05 20.34 31.58 20.03C31.11 19.72 30.75 19.28 30.53 18.77C30.31 18.25 30.26 17.69 30.37 17.14C30.48 16.6 30.75 16.09 31.15 15.7C31.55 15.31 32.05 15.04 32.61 14.93C33.16 14.82 33.73 14.88 34.25 15.09C34.78 15.3 35.22 15.66 35.53 16.13C35.85 16.59 36.02 17.13 36.02 17.69C36.02 18.43 35.71 19.15 35.18 19.68C34.65 20.2 33.92 20.5 33.17 20.5ZM56.83 38.08C56.27 38.08 55.72 37.91 55.25 37.6C54.78 37.29 54.41 36.86 54.19 36.34C53.98 35.83 53.92 35.26 54.03 34.72C54.14 34.17 54.41 33.67 54.81 33.28C55.21 32.88 55.72 32.62 56.27 32.51C56.82 32.4 57.4 32.45 57.92 32.67C58.44 32.88 58.89 33.24 59.2 33.7C59.51 34.16 59.68 34.71 59.68 35.26C59.68 36.01 59.38 36.72 58.85 37.25C58.31 37.78 57.59 38.08 56.83 38.08ZM56.83 20.5C56.27 20.5 55.72 20.34 55.25 20.03C54.78 19.72 54.41 19.28 54.19 18.77C53.98 18.25 53.92 17.69 54.03 17.14C54.14 16.6 54.41 16.09 54.81 15.7C55.21 15.31 55.72 15.04 56.27 14.93C56.82 14.82 57.4 14.88 57.92 15.09C58.44 15.3 58.89 15.66 59.2 16.13C59.51 16.59 59.68 17.13 59.68 17.69C59.68 18.43 59.38 19.15 58.85 19.68C58.31 20.2 57.59 20.5 56.83 20.5Z" fill="#091054" fill-opacity="1.000000" fill-rule="nonzero"/>
		<path id="Vector" d="M82.05 36.98C81.73 36.67 81.35 36.42 80.92 36.25C80.5 36.08 80.04 35.99 79.58 36L71.41 36C70.95 36 70.49 36.08 70.07 36.25C69.64 36.42 69.26 36.67 68.94 36.98C68.63 37.3 68.38 37.66 68.22 38.07C68.05 38.47 67.98 38.91 68 39.34L68.41 48.39L68.41 48.5L71.72 48.5C73 48.51 74.22 48.99 75.12 49.83C76.02 50.68 76.53 51.83 76.53 53.02L76.53 67.42C76.53 68.34 76.23 69.24 75.67 70L80.16 70C80.55 70 80.92 69.86 81.2 69.6C81.48 69.35 81.65 69.01 81.66 68.64L82.99 39.34C83.01 38.91 82.94 38.47 82.78 38.07C82.61 37.66 82.37 37.29 82.05 36.98Z" fill="#091054" fill-opacity="1.000000" fill-rule="nonzero"/>
		<path id="Vector" d="M14.25 49.94C14.49 49.68 14.76 49.45 15.05 49.25C15.78 48.76 16.64 48.5 17.52 48.5L20.61 48.5L20.61 48.39L20.99 39.34C21.01 38.91 20.94 38.47 20.79 38.07C20.64 37.66 20.41 37.3 20.11 36.98C19.81 36.67 19.45 36.42 19.06 36.25C18.66 36.08 18.24 36 17.81 36L10.18 36C9.75 36 9.33 36.08 8.93 36.25C8.54 36.42 8.18 36.67 7.88 36.98C7.58 37.3 7.35 37.66 7.2 38.07C7.05 38.47 6.98 38.91 7 39.34L8.24 68.64C8.25 69.01 8.4 69.35 8.66 69.6C8.92 69.85 9.27 70 9.63 70L13.83 70C13.31 69.24 13.04 68.34 13.04 67.42L13.04 53.02C13.04 51.88 13.47 50.77 14.25 49.94Z" fill="#091054" fill-opacity="1.000000" fill-rule="nonzero"/>
		<path id="Vector" d="M72.33 50L17.66 50C16.95 50 16.28 50.27 15.78 50.77C15.28 51.26 15 51.93 15 52.63L15 67.36C15 68.06 15.28 68.73 15.78 69.22C16.28 69.72 16.96 69.99 17.66 70L72.33 70C73.03 69.99 73.71 69.72 74.21 69.22C74.71 68.73 74.99 68.06 75 67.36L75 52.63C74.99 51.93 74.71 51.26 74.21 50.77C73.71 50.27 73.04 50 72.33 50Z" fill="#E0E1E8" fill-opacity="1.000000" fill-rule="nonzero"/>
		<path id="Vector" d="M68.41 73.66L73.48 84.33L69.58 84.33L64.51 73.66L68.41 73.66ZM69.34 72L62 72L63.15 74.42L68.22 85.1L68.65 86L76 86L74.84 83.57L69.77 72.89L69.34 72Z" fill="#E0E1E8" fill-opacity="1.000000" fill-rule="nonzero"/>
		<path id="Vector" d="M25.49 73.66L20.42 84.33L16.51 84.33L21.58 73.66L25.49 73.66ZM28 72L20.65 72L20.22 72.89L15.15 83.57L14 86L21.35 86L21.77 85.1L26.84 74.42L28 72Z" fill="#E0E1E8" fill-opacity="1.000000" fill-rule="nonzero"/>
	</g>
</svg>
