<svg width="90.000000" height="90.000000" viewBox="0 0 90 90" fill="none" xmlns="http://www.w3.org/2000/svg" xmlns:xlink="http://www.w3.org/1999/xlink">
	<desc>
			Created with Pixso.
	</desc>
	<defs>
		<clipPath id="clip10_5821">
			<rect id="Layer_1" rx="0.000000" width="89.000000" height="89.000000" transform="translate(0.500000 0.500000)" fill="white" fill-opacity="0"/>
		</clipPath>
	</defs>
	<rect id="Layer_1" rx="0.000000" width="89.000000" height="89.000000" transform="translate(0.500000 0.500000)" fill="#FFFFFF" fill-opacity="0"/>
	<g clip-path="url(#clip10_5821)">
		<path id="Vector" d="M31.47 38.74L55.51 38.74L55.51 47.09C55.51 50.28 54.24 53.33 51.99 55.58C49.73 57.84 46.68 59.1 43.49 59.1C40.3 59.1 37.25 57.84 34.99 55.58C32.74 53.33 31.47 50.28 31.47 47.09L31.47 38.74Z" fill="#091054" fill-opacity="1.000000" fill-rule="nonzero"/>
		<path id="Vector" d="M52.14 33.86L47.05 33.86L47.05 18.17L52.14 18.17L52.14 33.86ZM48.62 32.29L50.57 32.29L50.57 19.74L48.62 19.74L48.62 32.29Z" fill="#E0E1E8" fill-opacity="1.000000" fill-rule="nonzero"/>
		<path id="Vector" d="M39.93 33.86L34.84 33.86L34.84 18.17L39.93 18.17L39.93 33.86ZM36.41 32.29L38.36 32.29L38.36 19.74L36.41 19.74L36.41 32.29Z" fill="#E0E1E8" fill-opacity="1.000000" fill-rule="nonzero"/>
		<path id="Vector" d="M45 84.9C22.99 84.9 5.09 67 5.09 45C5.09 22.99 23 5.09 45 5.09C66.99 5.09 84.9 22.99 84.9 45C84.9 52.46 82.63 60.06 78.67 65.86C74.29 72.28 68.11 76.15 61.29 76.76C55.48 77.29 49.68 75.47 45.78 71.9C43.12 69.47 41.64 66.53 41.64 63.61L41.64 48.92L45.55 48.92L45.55 63.61C45.55 65.39 46.59 67.36 48.41 69.02C51.51 71.86 56.19 73.3 60.93 72.87C73.49 71.75 80.99 57.81 80.99 45C80.99 25.15 64.84 9 44.99 9C25.14 9 9 25.15 9 45C9 64.85 25.15 81 45 81L45 84.9Z" fill="#091054" fill-opacity="1.000000" fill-rule="nonzero"/>
		<path id="Vector" d="M27.37 31.57L59.61 31.57L59.61 39.62L27.37 39.62L27.37 31.57Z" fill="#E0E1E8" fill-opacity="1.000000" fill-rule="evenodd"/>
	</g>
</svg>
