<svg width="90.000000" height="90.000000" viewBox="0 0 90 90" fill="none" xmlns="http://www.w3.org/2000/svg" xmlns:xlink="http://www.w3.org/1999/xlink">
	<desc>
			Created with Pixso.
	</desc>
	<defs>
		<clipPath id="clip10_5736">
			<rect id="Layer_1" rx="0.000000" width="89.000000" height="89.000000" transform="translate(0.500000 0.500000)" fill="white" fill-opacity="0"/>
		</clipPath>
	</defs>
	<rect id="Layer_1" rx="0.000000" width="89.000000" height="89.000000" transform="translate(0.500000 0.500000)" fill="#FFFFFF" fill-opacity="0"/>
	<g clip-path="url(#clip10_5736)">
		<path id="Vector" d="M86.62 9L84.6 22.35L70.5 36.15L52.08 36.15L37.97 22.35L35.95 9L41.44 9L41.7 10.69C42.51 16.06 44.92 20.92 48.5 24.42C52.08 27.92 56.61 29.84 61.28 29.84C65.95 29.84 70.48 27.92 74.05 24.42C77.64 20.92 80.04 16.06 80.85 10.69L81.11 9L86.62 9Z" fill="#E0E1E8" fill-opacity="1.000000" fill-rule="nonzero"/>
		<path id="Vector" d="M31.34 9L4 9L4 23.92L16.77 36.15L46.59 36.15L33.52 23.36L31.34 9Z" fill="#091054" fill-opacity="1.000000" fill-rule="nonzero"/>
		<path id="Vector" d="M45.69 80.12L31.24 80.12L31.24 56.2C31.24 54.54 31.9 52.94 33.08 51.76C34.26 50.58 35.86 49.92 37.52 49.92L54.05 49.92L54.05 39.17L68.51 39.17L68.51 58.09C68.51 59.75 67.84 61.35 66.67 62.53C65.49 63.71 63.89 64.37 62.22 64.37L45.69 64.37L45.69 80.12ZM32.71 78.65L44.23 78.65L44.23 62.9L62.22 62.9C63.5 62.9 64.73 62.4 65.63 61.49C66.53 60.59 67.04 59.36 67.04 58.09L67.04 40.63L55.52 40.63L55.52 51.38L37.52 51.38C36.25 51.38 35.02 51.89 34.12 52.8C33.21 53.7 32.71 54.92 32.71 56.2L32.71 78.65Z" fill="#E0E1E8" fill-opacity="1.000000" fill-rule="nonzero"/>
		<path id="Vector" d="M47.09 50.66L48.56 50.66L48.56 63.64L47.09 63.64L47.09 50.66Z" fill="#E0E1E8" fill-opacity="1.000000" fill-rule="evenodd"/>
		<path id="Vector" d="M53.56 55.03C53.56 55.81 52.93 56.45 52.14 56.45C51.36 56.45 50.73 55.81 50.73 55.03C50.73 54.25 51.36 53.62 52.14 53.62C52.93 53.62 53.56 54.25 53.56 55.03Z" fill="#E0E1E8" fill-opacity="1.000000" fill-rule="evenodd"/>
		<path id="Vector" d="M53.56 59.64C53.56 60.42 52.93 61.05 52.14 61.05C51.36 61.05 50.73 60.42 50.73 59.64C50.73 58.86 51.36 58.23 52.14 58.23C52.93 58.23 53.56 58.86 53.56 59.64Z" fill="#E0E1E8" fill-opacity="1.000000" fill-rule="evenodd"/>
	</g>
</svg>
