<svg width="90.000000" height="90.000000" viewBox="0 0 90 90" fill="none" xmlns="http://www.w3.org/2000/svg" xmlns:xlink="http://www.w3.org/1999/xlink">
	<desc>
			Created with Pixso.
	</desc>
	<defs>
		<clipPath id="clip10_5787">
			<rect id="Layer_1" rx="0.000000" width="89.000000" height="89.000000" transform="translate(0.500000 0.500000)" fill="white" fill-opacity="0"/>
		</clipPath>
	</defs>
	<rect id="Layer_1" rx="0.000000" width="89.000000" height="89.000000" transform="translate(0.500000 0.500000)" fill="#FFFFFF" fill-opacity="0"/>
	<g clip-path="url(#clip10_5787)">
		<path id="Vector" d="M83.52 42.25L44.99 13.28L6.47 42.25L4.1 39.1L44.99 8.34L85.89 39.1L83.52 42.25Z" fill="#E0E1E8" fill-opacity="1.000000" fill-rule="nonzero"/>
		<path id="Vector" d="M16.03 63.6L36.61 63.6L36.61 66.81L16.03 66.81L16.03 63.6Z" fill="#091054" fill-opacity="1.000000" fill-rule="evenodd"/>
		<path id="Vector" d="M53.37 63.6L73.96 63.6L73.96 66.81L53.37 66.81L53.37 63.6Z" fill="#091054" fill-opacity="1.000000" fill-rule="evenodd"/>
		<path id="Vector" d="M16.03 68.78L73.96 68.78L73.96 71.98L16.03 71.98L16.03 68.78Z" fill="#091054" fill-opacity="1.000000" fill-rule="evenodd"/>
		<path id="Vector" d="M16.03 73.96L73.96 73.96L73.96 77.16L16.03 77.16L16.03 73.96Z" fill="#091054" fill-opacity="1.000000" fill-rule="evenodd"/>
		<path id="Vector" d="M16.03 58.43L36.61 58.43L36.61 61.63L16.03 61.63L16.03 58.43Z" fill="#091054" fill-opacity="1.000000" fill-rule="evenodd"/>
		<path id="Vector" d="M53.37 58.43L73.96 58.43L73.96 61.63L53.37 61.63L53.37 58.43Z" fill="#091054" fill-opacity="1.000000" fill-rule="evenodd"/>
		<path id="Vector" d="M48.01 20.22L44.99 17.96L41.98 20.22L48.01 20.22Z" fill="#091054" fill-opacity="1.000000" fill-rule="nonzero"/>
		<path id="Vector" d="M16.03 39.75L16.03 40.93L73.96 40.93L73.96 39.75L71.28 37.72L18.71 37.72L16.03 39.75Z" fill="#091054" fill-opacity="1.000000" fill-rule="nonzero"/>
		<path id="Vector" d="M32.48 27.37L28.22 30.58L61.77 30.58L57.51 27.37L32.48 27.37Z" fill="#091054" fill-opacity="1.000000" fill-rule="nonzero"/>
		<path id="Vector" d="M39.36 22.2L35.1 25.4L54.89 25.4L50.63 22.2L39.36 22.2Z" fill="#091054" fill-opacity="1.000000" fill-rule="nonzero"/>
		<path id="Vector" d="M25.59 32.55L21.33 35.75L68.65 35.75L64.39 32.55L25.59 32.55Z" fill="#091054" fill-opacity="1.000000" fill-rule="nonzero"/>
		<path id="Vector" d="M16.03 79.13L73.96 79.13L73.96 81.65L16.03 81.65L16.03 79.13Z" fill="#091054" fill-opacity="1.000000" fill-rule="evenodd"/>
		<path id="Vector" d="M16.03 42.9L73.96 42.9L73.96 46.1L16.03 46.1L16.03 42.9Z" fill="#091054" fill-opacity="1.000000" fill-rule="evenodd"/>
		<path id="Vector" d="M16.03 53.25L36.61 53.25L36.61 56.46L16.03 56.46L16.03 53.25Z" fill="#091054" fill-opacity="1.000000" fill-rule="evenodd"/>
		<path id="Vector" d="M53.37 53.25L73.96 53.25L73.96 56.46L53.37 56.46L53.37 53.25Z" fill="#091054" fill-opacity="1.000000" fill-rule="evenodd"/>
		<path id="Vector" d="M16.03 48.08L36.61 48.08L36.61 51.28L16.03 51.28L16.03 48.08Z" fill="#091054" fill-opacity="1.000000" fill-rule="evenodd"/>
		<path id="Vector" d="M53.37 48.08L73.96 48.08L73.96 51.28L53.37 51.28L53.37 48.08Z" fill="#091054" fill-opacity="1.000000" fill-rule="evenodd"/>
	</g>
</svg>
