<svg width="75.625488" height="81.671875" viewBox="0 0 75.6255 81.6719" fill="none" xmlns="http://www.w3.org/2000/svg" xmlns:xlink="http://www.w3.org/1999/xlink">
	<desc>
			Created with Pixso.
	</desc>
	<defs/>
	<path id="Vector" d="M41.28 41.73L36.63 41.73L36.63 26.68L70.98 26.68L70.98 6.59L75.62 6.59L75.62 31.32L41.28 31.32L41.28 41.73Z" fill="#E0E1E8" fill-opacity="1.000000" fill-rule="nonzero"/>
	<path id="Vector" d="M0 6.55L6.84 6.55L6.84 11.2L0 11.2L0 6.55Z" fill="#E0E1E8" fill-opacity="1.000000" fill-rule="evenodd"/>
	<path id="Vector" d="M46.14 81.67L31.73 81.67C31.11 81.67 30.52 81.42 30.09 80.99C29.65 80.55 29.41 79.96 29.41 79.35L29.41 42.88C29.41 42.58 29.47 42.28 29.58 41.99C29.7 41.71 29.87 41.46 30.08 41.24C30.3 41.02 30.56 40.85 30.84 40.74C31.12 40.62 31.42 40.56 31.73 40.56L46.14 40.56C46.76 40.56 47.35 40.81 47.79 41.24C48.22 41.68 48.47 42.27 48.47 42.88L48.47 79.35C48.46 79.97 48.22 80.56 47.78 80.99C47.35 81.42 46.76 81.67 46.14 81.67ZM34.05 79.35L43.82 79.35C44.44 79.35 45.03 79.1 45.46 78.66C45.9 78.23 46.14 77.64 46.14 77.02L46.14 45.21C46.14 44.59 45.9 44.01 45.46 43.57C45.03 43.14 44.44 42.9 43.82 42.9L34.05 42.9C33.75 42.89 33.45 42.95 33.16 43.07C32.88 43.18 32.63 43.35 32.41 43.57C32.19 43.78 32.02 44.04 31.91 44.32C31.79 44.6 31.73 44.9 31.73 45.21L31.73 77.03C31.73 77.65 31.98 78.24 32.41 78.67C32.85 79.1 33.44 79.35 34.05 79.35Z" fill="#091054" fill-opacity="1.000000" fill-rule="nonzero"/>
	<path id="Vector" d="M40.27 47.05L42.6 47.05L42.6 75.11L40.27 75.11L40.27 47.05Z" fill="#091054" fill-opacity="1.000000" fill-rule="evenodd"/>
	<path id="Vector" d="M64.21 0L12.39 0C11.5 0 10.66 0.35 10.03 0.97C9.4 1.6 9.05 2.45 9.05 3.33L9.05 14.41C9.05 14.85 9.14 15.28 9.3 15.69C9.47 16.09 9.72 16.46 10.03 16.77C10.34 17.08 10.71 17.33 11.11 17.5C11.52 17.66 11.95 17.75 12.39 17.75L64.21 17.75C65.1 17.75 65.95 17.4 66.57 16.77C67.2 16.15 67.55 15.3 67.55 14.41L67.55 3.33C67.55 2.45 67.2 1.6 66.57 0.97C65.94 0.35 65.1 0 64.21 0ZM63.49 5.8L13.62 5.8L13.62 3.48L63.49 3.48L63.49 5.8Z" fill="#091054" fill-opacity="1.000000" fill-rule="nonzero"/>
</svg>
