<svg width="90.000000" height="90.000000" viewBox="0 0 90 90" fill="none" xmlns="http://www.w3.org/2000/svg" xmlns:xlink="http://www.w3.org/1999/xlink">
	<desc>
			Created with Pixso.
	</desc>
	<defs>
		<clipPath id="clip10_5775">
			<rect id="Layer_1" rx="0.000000" width="89.000000" height="89.000000" transform="translate(0.500000 0.500000)" fill="white" fill-opacity="0"/>
		</clipPath>
	</defs>
	<rect id="Layer_1" rx="0.000000" width="89.000000" height="89.000000" transform="translate(0.500000 0.500000)" fill="#FFFFFF" fill-opacity="0"/>
	<g clip-path="url(#clip10_5775)">
		<path id="Vector" d="M82.2 65.24L62.08 65.24L62.08 59.38L4.66 59.38L4.66 39.28L67.76 39.28C71.59 39.28 75.26 40.8 77.96 43.51C80.67 46.22 82.19 49.89 82.2 53.72L82.2 65.24Z" fill="#091054" fill-opacity="1.000000" fill-rule="nonzero"/>
		<path id="Vector" d="M60.58 67.77L83.88 67.77C84.68 67.77 85.33 68.42 85.33 69.22L85.33 78.39C85.33 79.19 84.68 79.83 83.88 79.83L60.58 79.83C59.78 79.83 59.13 79.19 59.13 78.39L59.13 69.22C59.13 68.42 59.78 67.77 60.58 67.77Z" fill="#091054" fill-opacity="1.000000" fill-rule="evenodd"/>
		<path id="Vector" d="M53.69 48.24C53.69 57.78 45.96 65.51 36.42 65.51C26.88 65.51 19.14 57.78 19.14 48.24C19.14 38.7 26.88 30.96 36.42 30.96C45.96 30.96 53.69 38.7 53.69 48.24Z" fill="#091054" fill-opacity="1.000000" fill-rule="evenodd"/>
		<path id="Vector" d="M50.72 26.62L22.12 26.62C20.98 26.62 19.89 26.17 19.09 25.37C18.29 24.57 17.84 23.48 17.83 22.34L17.83 21.86C17.84 20.73 18.29 19.64 19.09 18.84C19.9 18.04 20.98 17.59 22.12 17.59L50.72 17.59C51.85 17.59 52.94 18.04 53.74 18.85C54.55 19.65 55 20.74 55 21.87L55 22.35C55 23.49 54.55 24.57 53.74 25.37C52.94 26.17 51.85 26.62 50.72 26.62ZM22.12 19.28C21.43 19.28 20.77 19.55 20.28 20.04C19.79 20.53 19.52 21.19 19.52 21.87L19.52 22.36C19.52 23.04 19.79 23.7 20.28 24.19C20.77 24.68 21.43 24.95 22.12 24.95L50.72 24.95C51.06 24.95 51.4 24.88 51.71 24.75C52.03 24.62 52.32 24.43 52.56 24.19C52.8 23.95 52.99 23.66 53.12 23.34C53.25 23.03 53.32 22.69 53.32 22.34L53.32 21.86C53.31 21.17 53.04 20.52 52.55 20.03C52.06 19.55 51.4 19.28 50.72 19.28L22.12 19.28Z" fill="#E0E1E8" fill-opacity="1.000000" fill-rule="nonzero"/>
		<path id="Vector" d="M32.64 28.47L40.19 28.47L40.19 39.38L32.64 39.38L32.64 28.47Z" fill="#091054" fill-opacity="1.000000" fill-rule="evenodd"/>
		<path id="Vector" d="M35.93 10.16L36.91 10.16C37.78 10.16 38.62 10.5 39.23 11.12C39.85 11.74 40.2 12.57 40.2 13.45L40.2 15.61L32.64 15.61L32.64 13.45C32.64 12.57 32.99 11.74 33.6 11.12C34.22 10.5 35.06 10.16 35.93 10.16Z" fill="#E0E1E8" fill-opacity="1.000000" fill-rule="nonzero"/>
	</g>
</svg>
