<svg width="90.000000" height="90.000000" viewBox="0 0 90 90" fill="none" xmlns="http://www.w3.org/2000/svg" xmlns:xlink="http://www.w3.org/1999/xlink">
	<desc>
			Created with Pixso.
	</desc>
	<defs>
		<clipPath id="clip10_5748">
			<rect id="Layer_1" rx="0.000000" width="89.000000" height="89.000000" transform="translate(0.500000 0.500000)" fill="white" fill-opacity="0"/>
		</clipPath>
	</defs>
	<rect id="Layer_1" rx="0.000000" width="89.000000" height="89.000000" transform="translate(0.500000 0.500000)" fill="#FFFFFF" fill-opacity="0"/>
	<g clip-path="url(#clip10_5748)">
		<path id="Vector" d="M78.64 36.94C81.08 34.5 82.77 31.42 83.54 28.06C84.3 24.7 84.1 21.2 82.96 17.95L74.33 26.59L65.51 24.23L63.14 15.41L71.78 6.77C68.58 5.65 65.13 5.44 61.82 6.16C58.51 6.89 55.46 8.52 53.02 10.87C50.59 13.23 48.85 16.21 48.01 19.5C47.17 22.78 47.27 26.24 48.28 29.47L10 62.43C8.72 63.53 7.68 64.88 6.95 66.4C6.22 67.92 5.82 69.58 5.75 71.26C5.69 72.95 5.98 74.63 6.6 76.2C7.21 77.77 8.15 79.2 9.34 80.39C10.53 81.58 11.96 82.51 13.53 83.13C15.1 83.75 16.78 84.04 18.46 83.97C20.15 83.91 21.81 83.5 23.33 82.78C24.85 82.05 26.2 81.01 27.3 79.73L60.14 41.42C63.34 42.44 66.76 42.56 70.02 41.77C73.28 40.98 76.26 39.31 78.64 36.94ZM13.82 75.9C13.03 75.11 12.49 74.09 12.27 72.99C12.05 71.89 12.16 70.74 12.59 69.71C13.02 68.66 13.75 67.78 14.69 67.15C15.62 66.53 16.72 66.19 17.85 66.19C18.97 66.19 20.07 66.53 21.01 67.15C21.94 67.78 22.67 68.66 23.1 69.71C23.53 70.74 23.64 71.89 23.42 72.99C23.2 74.09 22.66 75.11 21.87 75.9C20.8 76.97 19.35 77.57 17.85 77.57C16.34 77.57 14.89 76.97 13.82 75.9Z" fill="#E0E1E8" fill-opacity="1.000000" fill-rule="nonzero"/>
		<path id="Vector" d="M56.67 49.77C56.89 49.77 57.11 49.81 57.31 49.89C57.51 49.97 57.7 50.1 57.85 50.25L76.12 68.52C76.43 68.83 76.6 69.25 76.59 69.69C76.59 70.13 76.41 70.55 76.1 70.87C75.79 71.18 75.37 71.35 74.93 71.36C74.49 71.36 74.07 71.19 73.75 70.89L55.49 52.62C55.2 52.33 55.03 51.94 55.01 51.53L51.13 56.04C51.34 56.13 51.54 56.25 51.7 56.42L69.96 74.68C70.12 74.83 70.25 75.01 70.34 75.22C70.44 75.43 70.48 75.65 70.49 75.87C70.49 76.1 70.45 76.32 70.37 76.53C70.28 76.74 70.16 76.93 70 77.09C69.84 77.25 69.65 77.37 69.44 77.46C69.23 77.54 69.01 77.58 68.78 77.58C68.56 77.57 68.34 77.52 68.13 77.43C67.93 77.34 67.74 77.21 67.59 77.04L49.33 58.8C49.23 58.7 49.14 58.58 49.07 58.46L46.47 61.49L64.3 79.32C65.23 80.25 66.32 80.98 67.53 81.48C68.73 81.97 70.02 82.23 71.33 82.23C72.63 82.23 73.92 81.97 75.13 81.48C76.33 80.98 77.43 80.25 78.35 79.32C79.27 78.4 80 77.31 80.5 76.1C81 74.9 81.26 73.6 81.26 72.3C81.26 71 81 69.71 80.5 68.5C80 67.3 79.27 66.2 78.35 65.28L59.44 46.35L56.51 49.77C56.56 49.77 56.61 49.77 56.67 49.77Z" fill="#091054" fill-opacity="1.000000" fill-rule="nonzero"/>
		<path id="Vector" d="M17.84 68.87C17.15 68.87 16.48 69.12 15.94 69.56C15.4 70 15.03 70.61 14.9 71.3C14.76 71.98 14.87 72.69 15.19 73.3C15.52 73.91 16.05 74.39 16.7 74.66C17.34 74.93 18.06 74.96 18.72 74.76C19.39 74.56 19.96 74.13 20.35 73.55C20.73 72.97 20.91 72.28 20.84 71.58C20.77 70.89 20.46 70.24 19.97 69.75C19.69 69.47 19.36 69.25 19 69.1C18.63 68.95 18.24 68.87 17.84 68.87Z" fill="#091054" fill-opacity="1.000000" fill-rule="nonzero"/>
		<path id="Vector" d="M18.97 16.23L18.1 13.51L12.17 9.43L8.48 13.13L12.56 19.06L15.27 19.92L33.77 38.42L37.74 35L18.97 16.23Z" fill="#091054" fill-opacity="1.000000" fill-rule="nonzero"/>
		<path id="Vector" d="M15.27 19.93L12.56 19.06L8.48 13.13L12.17 9.43L18.1 13.51L18.97 16.23L37.74 35L39.17 33.78L20.62 15.23L19.89 12.95L19.7 12.33L19.17 11.97L13.23 7.89L11.95 7L10.85 8.11L7.15 11.8L6.05 12.91L6.93 14.19L11.01 20.12L11.38 20.65L11.99 20.85L14.27 21.57L32.34 39.65L33.77 38.42L15.27 19.93Z" fill="#091054" fill-opacity="1.000000" fill-rule="nonzero"/>
		<path id="Vector" d="M60.66 44.92L59.44 46.35L78.35 65.26C80.21 67.12 81.26 69.65 81.26 72.28C81.26 74.92 80.21 77.44 78.35 79.3C76.49 81.17 73.96 82.21 71.33 82.21C68.7 82.21 66.17 81.17 64.31 79.3L46.48 61.47L45.25 62.91L62.98 80.64C64.07 81.74 65.38 82.61 66.81 83.2C68.24 83.8 69.78 84.1 71.33 84.1C72.88 84.1 74.42 83.8 75.85 83.2C77.28 82.61 78.59 81.74 79.68 80.64C80.78 79.54 81.65 78.24 82.25 76.81C82.84 75.37 83.14 73.84 83.14 72.29C83.14 70.74 82.84 69.2 82.25 67.77C81.65 66.33 80.78 65.03 79.68 63.93L60.66 44.92Z" fill="#091054" fill-opacity="1.000000" fill-rule="nonzero"/>
		<path id="Vector" d="M73.74 70.88C74.06 71.19 74.48 71.36 74.92 71.36C75.36 71.35 75.78 71.17 76.09 70.86C76.41 70.55 76.58 70.13 76.58 69.69C76.59 69.25 76.42 68.83 76.11 68.51L57.85 50.25C57.7 50.1 57.51 49.98 57.31 49.89C57.11 49.81 56.89 49.77 56.67 49.77C56.61 49.77 56.56 49.77 56.5 49.77L55 51.53C55.02 51.94 55.19 52.33 55.48 52.62L73.74 70.88Z" fill="#091054" fill-opacity="1.000000" fill-rule="nonzero"/>
		<path id="Vector" d="M67.58 77.04C67.74 77.21 67.92 77.34 68.13 77.43C68.33 77.52 68.56 77.57 68.78 77.58C69.01 77.58 69.23 77.54 69.44 77.46C69.65 77.37 69.84 77.25 70 77.09C70.16 76.93 70.28 76.74 70.37 76.53C70.45 76.32 70.49 76.1 70.49 75.87C70.48 75.65 70.43 75.42 70.34 75.22C70.25 75.01 70.12 74.83 69.95 74.67L51.69 56.41C51.53 56.25 51.34 56.13 51.13 56.04L49.07 58.45C49.14 58.57 49.23 58.68 49.33 58.78L67.58 77.04Z" fill="#091054" fill-opacity="1.000000" fill-rule="nonzero"/>
	</g>
</svg>
