<svg width="57.232971" height="58.000000" viewBox="0 0 57.233 58" fill="none" xmlns="http://www.w3.org/2000/svg" xmlns:xlink="http://www.w3.org/1999/xlink">
	<desc>
			Created with Pixso.
	</desc>
	<defs/>
	<path id="Vector 2" d="M11.37 38.69C12.14 38.58 13.82 38.3 14.46 38.11C15.27 37.88 16.35 37.76 17.5 37.41C18.41 37.14 18.99 36.95 19.16 36.89C18.8 36.33 17.86 35.03 17.04 34.34C16.35 33.75 16.1 33.74 15.67 33.62C15.61 33.6 15.55 33.59 15.49 33.58C15.17 33.52 14.95 33.48 14.73 32.25C14.47 30.81 13.59 26.87 13.01 23.69C12.44 20.52 11.24 14.31 10.73 11.92C10.22 9.53 9.6 9.5 9.04 9.74C8.47 9.99 8.44 11.09 9.04 13.4C9.63 15.7 11.17 22.35 11.94 25.55C12.72 28.76 13.52 31.93 13.74 32.77C13.86 33.28 13.92 33.46 13.86 33.58C13.81 33.67 13.72 33.72 13.55 33.83C13.13 34.1 11.55 35.52 11.37 38.69ZM11.2 39.62L19.67 37.76C20.74 39.35 23.38 42.84 25.4 44.1C24.42 44.39 23.51 44.68 23.16 44.74C23.03 44.76 22.96 44.77 22.9 44.75C22.8 44.72 22.73 44.6 22.48 44.27C22.16 43.85 20.59 41.66 19.84 40.61L21.96 44.91C21.83 44.99 21.48 45.17 21.16 45.26C20.76 45.37 20.42 45.37 19.56 44.56C18.7 43.75 18.24 43.34 18.7 44.45C19.15 45.54 18.93 45.61 18.14 45.84L18.13 45.84C17.49 46.03 16.45 46.27 16.01 46.36L15.44 42.93C15.28 43.83 14.96 45.72 14.87 46.19C14.75 46.77 14.35 46.83 13.72 46.94C13.22 47.04 12.56 47.14 12.29 47.18L12.46 44.27C12.23 44.93 11.72 46.36 11.49 46.83C11.2 47.41 11.2 47.47 10.92 47.52C10.69 47.57 9.41 47.82 8.8 47.93C8.89 47.66 9.16 46.99 9.48 46.48C9.89 45.84 10.69 42.99 11.2 39.62Z" fill="#0094F2" fill-opacity="1.000000" fill-rule="evenodd"/>
	<path id="Subtract" d="M34.5 16.38L44.57 24.05L44.57 29.96C42.38 33.01 38.69 36.54 34.5 39.43L34.5 16.38Z" fill="#0094F2" fill-opacity="1.000000" fill-rule="nonzero"/>
	<path id="Vector 3" d="M25.97 42.29L25.97 28.48L19.07 33.96C19.93 34.99 21.24 36.78 22.78 39.1C24.02 40.95 25.42 42 25.97 42.29Z" fill="#0094F2" fill-opacity="1.000000" fill-rule="nonzero"/>
	<path id="Union" d="M27.86 47.78C29.54 46.99 31.25 46.05 33.01 44.97L33.01 53.16C33.55 53.19 34.09 53.21 34.61 53.25L34.61 43.95C36.62 42.65 38.59 41.05 40.82 39.39C43.11 37.69 51.97 29.23 51.63 21.69C51.44 17.45 46.97 16.31 46.97 16.31C46.97 16.31 51.75 16.31 52.97 20.68C54.37 25.72 48.96 35.3 44.69 40.37L44.69 54.3C52.11 55.49 55.88 57.15 57.17 57.81C57.28 57.87 57.23 58.02 57.1 57.99C43.07 55.41 23.98 54.06 0.12 57.9C0 57.91 -0.06 57.78 0.05 57.72C1.37 57.04 5.57 55.22 14.47 54.07L14.47 50.91C18.62 50.99 22.4 49.97 26.26 48.37L26.26 53.18C26.78 53.17 27.31 53.15 27.86 53.14L27.86 47.78Z" fill="#141414" fill-opacity="1.000000" fill-rule="nonzero"/>
	<path id="Subtract" d="M32.89 0L21.22 9.29L21.22 29.96L27.86 24.75L27.86 43.18C29.56 42.44 31.25 41.52 32.89 40.48L32.89 0ZM14.35 45.76C14.4 45.8 14.45 45.84 14.5 45.88C14.45 45.88 14.4 45.87 14.35 45.86L14.35 45.76ZM29.42 8.71L27.35 8.71L27.35 10.8L29.42 10.8L29.42 8.71ZM24.61 8.71L26.67 8.71L26.67 10.8L24.61 10.8L24.61 8.71ZM24.61 11.5L26.67 11.5L26.67 13.59L24.61 13.59L24.61 11.5ZM27.35 11.5L29.42 11.5L29.42 13.59L27.35 13.59L27.35 11.5Z" fill="#0094F2" fill-opacity="1.000000" fill-rule="evenodd"/>
	<path id="Star 1" d="M31.48 17.89L31.52 18.47C31.55 19.01 31.98 19.44 32.51 19.48L33.08 19.52L32.51 19.56C31.98 19.59 31.55 20.03 31.52 20.57L31.48 21.14L31.44 20.57C31.4 20.03 30.98 19.59 30.44 19.56L29.87 19.52L30.44 19.48C30.98 19.44 31.4 19.01 31.44 18.47L31.48 17.89Z" fill="#FFFFFF" fill-opacity="1.000000" fill-rule="nonzero"/>
	<path id="Star 2" d="M22.89 22.31L22.92 22.76C22.95 23.19 23.28 23.53 23.7 23.55L24.15 23.59L23.7 23.62C23.28 23.65 22.95 23.98 22.92 24.41L22.89 24.86L22.86 24.41C22.83 23.98 22.5 23.65 22.08 23.62L21.63 23.59L22.08 23.55C22.5 23.53 22.83 23.19 22.86 22.76L22.89 22.31Z" fill="#FFFFFF" fill-opacity="1.000000" fill-rule="nonzero"/>
	<path id="Star 4" d="M36.17 31.37L36.2 31.74C36.22 32.09 36.49 32.37 36.83 32.39L37.2 32.42L36.83 32.44C36.49 32.47 36.22 32.74 36.2 33.09L36.17 33.46L36.15 33.09C36.12 32.74 35.85 32.47 35.51 32.44L35.14 32.42L35.51 32.39C35.85 32.37 36.12 32.09 36.15 31.74L36.17 31.37Z" fill="#FFFFFF" fill-opacity="1.000000" fill-rule="nonzero"/>
	<path id="Star 5" d="M41.21 22.31L41.23 22.68C41.26 23.03 41.53 23.3 41.87 23.33L42.24 23.35L41.87 23.38C41.53 23.4 41.26 23.68 41.23 24.03L41.21 24.4L41.18 24.03C41.16 23.68 40.89 23.4 40.54 23.38L40.18 23.35L40.54 23.33C40.89 23.3 41.16 23.03 41.18 22.68L41.21 22.31Z" fill="#FFFFFF" fill-opacity="1.000000" fill-rule="nonzero"/>
</svg>
