<svg width="36.000000" height="36.000000" viewBox="0 0 36 36" fill="none" xmlns="http://www.w3.org/2000/svg" xmlns:xlink="http://www.w3.org/1999/xlink">
	<desc>
			Created with Pixso.
	</desc>
	<defs/>
	<path id="Vector" d="M16 28C16 30.12 15.15 32.15 13.65 33.65C12.15 35.15 10.12 36 8 36C5.87 36 3.84 35.15 2.34 33.65C0.84 32.15 0 30.12 0 28C0 23.58 8 0 8 0L12 0L8 20C10.12 20 12.15 20.84 13.65 22.34C15.15 23.84 16 25.87 16 28ZM36 28C36 30.12 35.15 32.15 33.65 33.65C32.15 35.15 30.12 36 28 36C25.87 36 23.84 35.15 22.34 33.65C20.84 32.15 20 30.12 20 28C20 23.58 28 0 28 0L32 0L28 20C30.12 20 32.15 20.84 33.65 22.34C35.15 23.84 36 25.87 36 28Z" fill="#DADDE6" fill-opacity="1.000000" fill-rule="evenodd"/>
</svg>
