<svg width="44.000000" height="44.000000" viewBox="0 0 44 44" fill="none" xmlns="http://www.w3.org/2000/svg" xmlns:xlink="http://www.w3.org/1999/xlink">
	<desc>
			Created with Pixso.
	</desc>
	<defs>
		<clipPath id="clip58_31172">
			<rect id="Icon" rx="0.000000" width="23.000000" height="23.000000" transform="translate(10.500000 10.500000)" fill="white" fill-opacity="0"/>
		</clipPath>
	</defs>
	<rect id="Frame 1189" rx="21.500000" width="43.000000" height="43.000000" transform="translate(0.500000 0.500000)" fill="#FFFFFF" fill-opacity="1.000000"/>
	<rect id="Icon" rx="0.000000" width="23.000000" height="23.000000" transform="translate(10.500000 10.500000)" fill="#FFFFFF" fill-opacity="0"/>
	<g clip-path="url(#clip58_31172)">
		<path id="Vector" d="M18.46 18.39L18.46 18.39L18.46 18.39L18.46 18.39ZM28.42 18.2C28.35 18.14 28.27 18.08 28.19 18.03C28.07 17.96 27.94 17.91 27.8 17.9C27.67 17.88 27.53 17.89 27.4 17.93C27.27 17.97 27.14 18.03 27.04 18.12C26.93 18.21 26.85 18.32 26.79 18.44C26.44 19.12 25.97 19.72 25.39 20.22C25.48 19.72 25.52 19.21 25.52 18.71C25.52 17.17 25.12 15.65 24.35 14.32C23.57 12.99 22.46 11.89 21.12 11.12C20.98 11.04 20.81 11 20.64 11C20.47 10.99 20.3 11.04 20.15 11.12C20 11.2 19.88 11.31 19.79 11.46C19.7 11.6 19.64 11.76 19.63 11.93C19.58 12.88 19.33 13.81 18.9 14.66C18.48 15.5 17.89 16.26 17.16 16.87L16.93 17.06C16.17 17.57 15.5 18.2 14.94 18.92C14.07 20.02 13.47 21.3 13.19 22.66C12.9 24.03 12.94 25.44 13.29 26.79C13.64 28.14 14.31 29.39 15.23 30.44C16.15 31.49 17.3 32.31 18.6 32.83C18.75 32.89 18.91 32.92 19.08 32.9C19.24 32.88 19.4 32.83 19.53 32.74C19.67 32.64 19.78 32.52 19.86 32.38C19.93 32.23 19.98 32.07 19.98 31.91C19.97 31.8 19.96 31.69 19.93 31.59C19.7 30.75 19.64 29.88 19.74 29.01C20.68 30.8 22.2 32.21 24.05 33.03C24.27 33.13 24.53 33.14 24.76 33.07C26.22 32.6 27.54 31.76 28.58 30.64C29.63 29.51 30.37 28.14 30.74 26.65C31.1 25.16 31.08 23.61 30.67 22.13C30.27 20.65 29.49 19.3 28.42 18.2ZM24.51 31.03C23.64 30.59 22.87 29.97 22.26 29.21C21.64 28.46 21.19 27.58 20.94 26.63C20.86 26.31 20.8 25.99 20.76 25.67C20.73 25.46 20.63 25.27 20.49 25.12C20.35 24.97 20.16 24.86 19.96 24.82C19.89 24.81 19.83 24.8 19.77 24.8C19.59 24.8 19.42 24.85 19.26 24.94C19.11 25.03 18.99 25.15 18.9 25.31C18.07 26.74 17.65 28.37 17.69 30.02C16.96 29.46 16.35 28.75 15.9 27.94C15.44 27.14 15.15 26.25 15.04 25.33C14.93 24.42 15.01 23.49 15.26 22.6C15.51 21.71 15.94 20.88 16.52 20.16C16.95 19.59 17.48 19.09 18.08 18.7C18.11 18.68 18.13 18.66 18.15 18.64C18.15 18.64 18.45 18.4 18.46 18.39C19.89 17.19 20.9 15.57 21.36 13.76C22.45 14.77 23.18 16.11 23.43 17.57C23.68 19.03 23.44 20.53 22.75 21.85C22.65 22.02 22.62 22.22 22.64 22.42C22.66 22.61 22.74 22.8 22.86 22.95C22.99 23.1 23.16 23.21 23.35 23.27C23.54 23.33 23.74 23.32 23.93 23.26C25.46 22.79 26.81 21.85 27.79 20.58C28.38 21.45 28.77 22.44 28.92 23.49C29.07 24.53 28.99 25.59 28.67 26.6C28.36 27.6 27.82 28.52 27.1 29.29C26.38 30.06 25.5 30.66 24.51 31.03L24.51 31.03Z" fill="#26A4FF" fill-opacity="1.000000" fill-rule="nonzero"/>
	</g>
</svg>
