<svg width="44.000000" height="44.000000" viewBox="0 0 44 44" fill="none" xmlns="http://www.w3.org/2000/svg" xmlns:xlink="http://www.w3.org/1999/xlink">
	<desc>
			Created with Pixso.
	</desc>
	<defs/>
	<rect id="Frame 1189" rx="21.500000" width="43.000000" height="43.000000" transform="translate(0.500000 0.500000)" fill="#FFFFFF" fill-opacity="1.000000"/>
	<rect id="Icon" rx="0.000000" width="23.000000" height="23.000000" transform="translate(10.500000 10.500000)" fill="#FFFFFF" fill-opacity="0"/>
	<path id="Stroke 1" d="M22 18C20.61 18 19.5 19.11 19.5 20.5C19.5 21.88 20.61 23 22 23C23.38 23 24.5 21.88 24.5 20.5C24.5 19.11 23.38 18 22 18Z" stroke="#26A4FF" stroke-opacity="1.000000" stroke-width="2.000000" stroke-linejoin="round"/>
	<path id="Stroke 3" d="M14.5 20.56C14.5 16.38 17.85 13 21.99 13C26.14 13 29.5 16.38 29.5 20.56C29.5 25.89 23.19 31 21.99 31C20.8 31 14.5 25.89 14.5 20.56Z" stroke="#26A4FF" stroke-opacity="1.000000" stroke-width="2.000000" stroke-linejoin="round"/>
</svg>
