<svg width="44.000000" height="44.000000" viewBox="0 0 44 44" fill="none" xmlns="http://www.w3.org/2000/svg" xmlns:xlink="http://www.w3.org/1999/xlink">
	<desc>
			Created with Pixso.
	</desc>
	<defs>
		<clipPath id="clip58_31179">
			<rect id="Icon" rx="0.000000" width="23.000000" height="23.000000" transform="translate(10.500000 10.500000)" fill="white" fill-opacity="0"/>
		</clipPath>
	</defs>
	<rect id="Frame 1189" rx="21.500000" width="43.000000" height="43.000000" transform="translate(0.500000 0.500000)" fill="#FFFFFF" fill-opacity="1.000000"/>
	<rect id="Icon" rx="0.000000" width="23.000000" height="23.000000" transform="translate(10.500000 10.500000)" fill="#FFFFFF" fill-opacity="0"/>
	<g clip-path="url(#clip58_31179)">
		<path id="Vector (Stroke)" d="M22 15C21.46 15 20.96 15.21 20.58 15.58C20.21 15.96 20 16.46 20 17C20 17.53 20.21 18.03 20.58 18.41C20.96 18.78 21.46 19 22 19C22.53 19 23.03 18.78 23.41 18.41C23.78 18.03 24 17.53 24 17C24 16.46 23.78 15.96 23.41 15.58C23.03 15.21 22.53 15 22 15ZM19.17 14.17C19.92 13.42 20.93 13 22 13C23.06 13 24.07 13.42 24.82 14.17C25.57 14.92 26 15.93 26 17C26 18.06 25.57 19.07 24.82 19.82C24.07 20.57 23.06 21 22 21C20.93 21 19.92 20.57 19.17 19.82C18.42 19.07 18 18.06 18 17C18 15.93 18.42 14.92 19.17 14.17ZM15 19C14.73 19 14.48 19.1 14.29 19.29C14.1 19.48 14 19.73 14 20C14 20.26 14.1 20.51 14.29 20.7C14.48 20.89 14.73 21 15 21C15.26 21 15.51 20.89 15.7 20.7C15.89 20.51 16 20.26 16 20C16 19.73 15.89 19.48 15.7 19.29C15.51 19.1 15.26 19 15 19ZM12.87 17.87C13.44 17.31 14.2 17 15 17C15.79 17 16.55 17.31 17.12 17.87C17.68 18.44 18 19.2 18 20C18 20.79 17.68 21.55 17.12 22.12C16.55 22.68 15.79 23 15 23C14.2 23 13.44 22.68 12.87 22.12C12.31 21.55 12 20.79 12 20C12 19.2 12.31 18.44 12.87 17.87ZM29 19C28.73 19 28.48 19.1 28.29 19.29C28.1 19.48 28 19.73 28 20C28 20.26 28.1 20.51 28.29 20.7C28.48 20.89 28.73 21 29 21C29.26 21 29.51 20.89 29.7 20.7C29.89 20.51 30 20.26 30 20C30 19.73 29.89 19.48 29.7 19.29C29.51 19.1 29.26 19 29 19ZM26.87 17.87C27.44 17.31 28.2 17 29 17C29.79 17 30.55 17.31 31.12 17.87C31.68 18.44 32 19.2 32 20C32 20.79 31.68 21.55 31.12 22.12C30.55 22.68 29.79 23 29 23C28.2 23 27.44 22.68 26.87 22.12C26.31 21.55 26 20.79 26 20C26 19.2 26.31 18.44 26.87 17.87ZM22 23.99C21.2 23.99 20.41 24.23 19.75 24.68C19.13 25.1 18.64 25.69 18.33 26.38L18.09 29L25.9 29L25.66 26.38C25.35 25.69 24.86 25.1 24.24 24.68C23.58 24.23 22.79 23.99 22 23.99ZM28 29L31 29L31 28C31 27.58 30.87 27.17 30.62 26.84C30.38 26.5 30.04 26.24 29.65 26.11C29.26 25.97 28.83 25.96 28.43 26.08C28.2 26.15 27.98 26.26 27.78 26.41C27.92 26.91 28 27.45 28 28L28 29ZM26.92 24.57C26.5 23.97 25.98 23.44 25.36 23.03C24.37 22.35 23.19 21.99 22 21.99C20.8 21.99 19.62 22.35 18.63 23.03C18.01 23.44 17.49 23.97 17.07 24.57C16.77 24.39 16.45 24.25 16.12 24.16C15.32 23.92 14.47 23.94 13.68 24.22C12.9 24.49 12.22 25 11.74 25.68C11.25 26.35 11 27.16 11 28L11 30C11 30.55 11.44 31 12 31L32 31C32.55 31 33 30.55 33 30L33 28C33 27.16 32.74 26.35 32.25 25.68C31.77 25 31.09 24.49 30.31 24.22C29.52 23.94 28.67 23.92 27.87 24.16C27.54 24.25 27.22 24.39 26.92 24.57ZM16.21 26.41C16.01 26.26 15.79 26.15 15.56 26.08C15.16 25.96 14.73 25.97 14.34 26.11C13.95 26.24 13.61 26.5 13.37 26.84C13.12 27.17 13 27.58 13 28L13 29L16 29L16 28C16 27.45 16.07 26.91 16.21 26.41Z" fill="#26A4FF" fill-opacity="1.000000" fill-rule="evenodd"/>
	</g>
</svg>
