<svg width="18.497070" height="21.500000" viewBox="0 0 18.4971 21.5" fill="none" xmlns="http://www.w3.org/2000/svg" xmlns:xlink="http://www.w3.org/1999/xlink">
	<desc>
			Created with Pixso.
	</desc>
	<defs/>
	<path id="Combined-Shape" d="M7.32 19.1C7.84 19.68 8.5 20 9.19 20L9.19 20C9.89 20 10.55 19.68 11.07 19.1C11.35 18.79 11.83 18.77 12.13 19.04C12.44 19.32 12.47 19.8 12.19 20.1C11.38 21 10.32 21.5 9.19 21.5L9.19 21.5C8.07 21.49 7.01 21 6.2 20.1C5.93 19.8 5.95 19.32 6.26 19.04C6.57 18.77 7.04 18.79 7.32 19.1ZM9.24 0C13.69 0 16.67 3.46 16.67 6.69C16.67 8.35 17.1 9.06 17.54 9.81C17.99 10.54 18.49 11.38 18.49 12.97C18.14 17.01 13.92 17.34 9.24 17.34C4.57 17.34 0.34 17.01 0 13.03C-0.01 11.38 0.5 10.54 0.94 9.81L1.1 9.54C1.48 8.88 1.81 8.16 1.81 6.69C1.81 3.46 4.8 0 9.24 0ZM9.24 1.5C5.75 1.5 3.31 4.23 3.31 6.69C3.31 8.77 2.73 9.73 2.22 10.58C1.81 11.26 1.49 11.8 1.49 12.97C1.66 14.85 2.9 15.84 9.24 15.84C15.54 15.84 16.83 14.81 17 12.9C16.99 11.8 16.67 11.26 16.26 10.58C15.75 9.73 15.17 8.77 15.17 6.69C15.17 4.23 12.74 1.5 9.24 1.5Z" fill="#25324B" fill-opacity="1.000000" fill-rule="evenodd"/>
</svg>
