<svg width="20.000000" height="20.000000" viewBox="0 0 20 20" fill="none" xmlns="http://www.w3.org/2000/svg" xmlns:xlink="http://www.w3.org/1999/xlink">
	<desc>
			Created with Pixso.
	</desc>
	<defs>
		<clipPath id="clip128_29370">
			<rect id="Name=Google" rx="0.000000" width="19.000000" height="19.000000" transform="translate(0.500000 0.500000)" fill="white" fill-opacity="0"/>
		</clipPath>
	</defs>
	<rect id="Name=Google" rx="0.000000" width="19.000000" height="19.000000" transform="translate(0.500000 0.500000)" fill="#FFFFFF" fill-opacity="0"/>
	<g clip-path="url(#clip128_29370)">
		<path id="Vector" d="M18.17 8.36L17.5 8.36L17.5 8.33L10 8.33L10 11.66L14.7 11.66C14.02 13.6 12.17 15 10 15C7.23 15 5 12.76 5 10C5 7.23 7.23 5 10 5C11.27 5 12.43 5.48 13.31 6.26L15.67 3.9C14.18 2.52 12.19 1.66 10 1.66C5.39 1.66 1.66 5.39 1.66 10C1.66 14.6 5.39 18.33 10 18.33C14.6 18.33 18.33 14.6 18.33 10C18.33 9.44 18.27 8.89 18.17 8.36Z" fill="#FFC107" fill-opacity="1.000000" fill-rule="nonzero"/>
		<path id="Vector" d="M2.62 6.12L5.36 8.12C6.1 6.29 7.9 5 10 5C11.27 5 12.43 5.48 13.31 6.26L15.67 3.9C14.18 2.52 12.19 1.66 10 1.66C6.79 1.66 4.02 3.47 2.62 6.12Z" fill="#FF3D00" fill-opacity="1.000000" fill-rule="nonzero"/>
		<path id="Vector" d="M10 18.33C12.15 18.33 14.1 17.5 15.58 16.16L13 13.98C12.14 14.64 11.08 15 10 15C7.83 15 5.99 13.61 5.29 11.68L2.58 13.78C3.96 16.48 6.76 18.33 10 18.33Z" fill="#4CAF50" fill-opacity="1.000000" fill-rule="nonzero"/>
		<path id="Vector" d="M18.17 8.36L17.5 8.36L17.5 8.33L10 8.33L10 11.66L14.7 11.66C14.38 12.58 13.78 13.39 13 13.98L13 13.98L15.58 16.16C15.4 16.33 18.33 14.16 18.33 10C18.33 9.44 18.27 8.89 18.17 8.36Z" fill="#1976D2" fill-opacity="1.000000" fill-rule="nonzero"/>
	</g>
</svg>
