<svg width="455.000000" height="32.171875" viewBox="0 0 455 32.1719" fill="none" xmlns="http://www.w3.org/2000/svg" xmlns:xlink="http://www.w3.org/1999/xlink">
	<desc>
			Created with Pixso.
	</desc>
	<defs/>
	<path id="Vector" d="M9.7 16.5C13.26 16.5 16.99 16.33 20.55 16.16C22.08 16.16 23.44 16 24.96 16C31.41 15.66 37.86 15.32 44.3 14.99C52.11 14.65 59.74 14.14 67.54 13.81C78.57 13.13 89.6 12.63 100.62 11.95C103.17 11.79 105.71 11.79 108.26 11.62C114.7 11.28 121.15 10.94 127.6 10.78C134.04 10.44 140.49 10.1 146.93 9.93C149.48 9.76 152.02 9.6 154.57 9.6C164.75 9.26 175.09 8.92 185.27 8.59C191.55 8.42 197.83 8.25 204.27 7.91C206.82 7.91 209.19 7.74 211.74 7.74C221.57 7.58 231.58 7.41 241.42 7.24C251.26 7.07 260.93 6.9 270.77 6.73C273.31 6.73 275.86 6.73 278.57 6.73C285.02 6.73 291.29 6.73 297.74 6.73C307.75 6.73 317.59 6.73 327.6 6.56C330.82 6.56 334.04 6.56 337.27 6.56C344.05 6.56 350.84 6.56 357.62 6.56C358.13 6.56 358.81 6.56 359.32 6.56C344.05 6.73 328.62 6.9 313.35 7.24C306.9 7.41 300.63 7.41 294.18 7.58C291.47 7.58 288.58 7.58 285.87 7.74C276.54 7.91 267.38 8.25 258.05 8.42C247.36 8.75 236.67 8.92 225.98 9.26C224.12 9.26 222.42 9.43 220.56 9.43C214.79 9.76 209.19 9.93 203.42 10.27C191.89 10.78 180.35 11.28 168.82 11.79C167.12 11.79 165.43 11.95 163.73 12.12C158.13 12.46 152.36 12.96 146.77 13.3C136.59 13.98 126.58 14.65 116.4 15.32C113.68 15.49 110.8 15.83 108.09 16C101.64 16.5 95.19 17.01 88.75 17.68C80.61 18.36 72.29 19.03 64.15 19.7C52.79 20.71 41.25 21.72 29.88 22.73C27.17 22.9 24.46 23.24 21.57 23.41C16.65 23.91 11.73 24.42 6.81 24.92C6.3 24.92 5.8 25.26 5.8 25.93C5.8 26.44 6.3 26.95 6.81 26.95C8.68 26.95 10.38 27.11 12.24 27.11C12.07 27.62 11.9 28.12 11.9 28.63C11.9 30.48 13.43 32.17 15.46 32.17C29.54 31.33 43.46 30.31 57.54 29.64C69.75 29.13 81.96 28.46 94.18 27.96C107.58 27.28 121.15 26.61 134.55 26.1C138.79 25.93 143.03 25.77 147.27 25.43C148.46 25.43 149.65 25.26 151 25.26C172.72 24.76 194.43 24.08 216.15 23.58C227.68 23.24 239.39 22.9 250.92 22.73C255.16 22.57 259.23 22.57 263.47 22.4C285.7 22.06 307.92 21.72 330.14 21.39C339.64 21.22 349.14 21.05 358.64 20.88C366.78 20.71 374.93 20.71 383.07 20.38C389.85 20.21 396.47 19.87 403.26 19.7C406.65 19.53 410.04 19.53 413.27 19.37C420.9 18.86 428.53 18.36 436.17 17.85C435.66 18.52 435.66 19.53 435.83 20.21C436 21.05 436.51 21.72 437.35 22.06C438.03 22.4 439.05 22.73 439.73 22.4C441.42 21.72 443.12 21.05 444.65 20.38C444.65 20.38 444.65 20.38 444.48 20.38C444.65 20.38 444.65 20.21 444.82 20.21C444.99 20.21 445.16 20.04 445.16 20.04L444.99 20.04C445.84 19.7 446.68 19.37 447.7 18.86C448.55 18.52 449.57 18.02 450.42 17.68C451.43 17.18 452.28 16.67 453.3 16.16C454.32 15.66 455 14.31 455 13.13C455 12.46 454.83 11.95 454.49 11.28C454.15 10.61 453.3 9.76 452.45 9.6C451.6 9.43 450.75 9.26 449.91 9.26C449.74 9.26 449.57 9.26 449.4 9.26C448.89 9.26 448.21 9.26 447.7 9.43C446.34 9.6 445.16 9.76 443.8 9.76C442.78 9.76 441.76 9.93 440.58 9.93C437.69 10.1 434.98 10.27 432.09 10.61C431.42 10.61 430.57 10.78 429.89 10.78C430.23 10.44 430.4 10.1 430.4 9.76C430.57 9.43 430.57 9.09 430.57 8.75C430.57 8.59 430.57 8.25 430.74 8.08C430.74 7.74 430.74 7.41 430.57 7.24C430.57 7.24 430.74 7.24 430.74 7.07C431.25 6.73 431.76 6.4 432.09 5.72C432.43 5.22 432.6 4.54 432.6 3.87C432.6 3.2 432.43 2.69 432.09 2.02C431.93 1.85 431.76 1.51 431.59 1.34C431.08 0.84 430.57 0.67 430.06 0.5C429.04 0.16 427.85 0 426.67 0C425.65 0 424.8 0 423.78 0C422.43 0 421.07 0 419.71 0C417.85 0 415.81 0 413.94 0C408.85 0 403.77 0 398.68 0C393.93 0 389.01 0 384.26 0C379.85 0 375.6 0 371.19 0C353.72 0 336.42 0.16 318.95 0.33C305.88 0.5 292.82 0.67 279.76 0.67C273.99 0.67 268.06 0.84 262.29 1.01C249.23 1.34 236.16 1.51 223.1 1.85C219.37 1.85 215.64 2.02 211.91 2.02C209.7 2.02 207.66 2.18 205.46 2.18C192.57 2.69 179.67 3.2 166.78 3.7C162.88 3.87 158.98 4.04 154.91 4.21C152.7 4.21 150.5 4.37 148.29 4.54C135.4 5.22 122.68 5.89 109.78 6.56C103.17 6.9 96.55 7.24 89.94 7.74C78.57 8.42 67.2 9.09 56.01 9.93C46.17 10.61 36.33 11.11 26.49 11.62C24.96 11.79 23.44 11.79 21.74 11.95C19.2 12.12 16.65 12.12 14.11 12.29C11.9 12.46 9.7 12.46 7.32 12.46C7.15 11.95 6.47 11.45 5.96 11.45C4.44 11.62 3.08 11.79 1.55 11.95C0.88 11.95 0.2 12.29 0.03 13.13C-0.14 13.98 0.37 14.82 1.05 14.99C1.72 15.15 2.23 15.32 2.91 15.49C3.59 15.66 4.1 15.66 4.78 15.66C6.47 16.33 8 16.33 9.7 16.5ZM406.65 10.94C408.68 10.94 410.89 10.94 412.93 10.94C413.1 11.45 413.43 11.79 413.77 12.12C412.93 12.12 412.08 12.29 411.4 12.29C409.87 12.29 408.35 12.46 406.82 12.46C400.03 12.63 393.42 12.96 386.63 13.13C383.58 13.3 380.52 13.47 377.47 13.47C372.72 13.47 367.8 13.64 363.05 13.64C352.03 13.81 341.17 13.98 330.14 14.14C308.77 14.48 287.56 14.82 266.19 15.15C250.92 15.32 235.65 15.83 220.39 16.33C197.49 17.01 174.42 17.51 151.51 18.19C146.93 18.36 142.35 18.52 137.77 18.86C124.71 19.53 111.65 20.04 98.59 20.71C85.86 21.39 72.97 21.89 60.25 22.57C59.06 22.57 57.87 22.73 56.69 22.73C60.08 22.4 63.64 22.23 67.04 21.89C79.08 21.05 91.12 20.04 103.17 19.2C107.41 18.86 111.65 18.52 115.72 18.19C117.93 18.02 120.13 17.85 122.17 17.85C134.72 17.18 147.27 16.33 159.83 15.66C162.2 15.49 164.75 15.32 167.12 15.15C170.68 14.99 174.25 14.82 177.64 14.82C190.53 14.31 203.42 13.81 216.32 13.3C219.2 13.13 222.08 13.13 224.8 12.96C225.48 12.96 226.32 12.96 227 12.96C229.04 12.96 231.07 12.96 232.94 12.8C245.83 12.46 258.89 12.29 271.79 11.95C277.72 11.79 283.66 11.62 289.6 11.62C308.77 11.45 328.11 11.28 347.28 11.11C367.46 11.11 387.14 11.11 406.65 10.94Z" fill="#26A4FF" fill-opacity="1.000000" fill-rule="nonzero"/>
</svg>
