<svg width="431.000000" height="11.378906" viewBox="0 0 431 11.3789" fill="none" xmlns="http://www.w3.org/2000/svg" xmlns:xlink="http://www.w3.org/1999/xlink">
	<desc>
			Created with Pixso.
	</desc>
	<defs/>
	<path id="Vector" d="M9.19 5.83C12.56 5.83 16.09 5.77 19.47 5.71C20.92 5.71 22.2 5.65 23.65 5.65C29.75 5.54 35.86 5.42 41.97 5.3C49.36 5.18 56.59 5 63.98 4.88C74.43 4.64 84.87 4.46 95.32 4.22C97.73 4.16 100.14 4.16 102.55 4.11C108.65 3.99 114.76 3.87 120.86 3.81C126.97 3.69 133.08 3.57 139.18 3.51C141.59 3.45 144 3.39 146.41 3.39C156.06 3.27 165.86 3.15 175.5 3.03C181.44 2.97 187.39 2.91 193.5 2.79C195.91 2.79 198.16 2.74 200.57 2.74C209.89 2.68 219.37 2.62 228.69 2.56C238.01 2.5 247.17 2.44 256.49 2.38C258.9 2.38 261.31 2.38 263.88 2.38C269.98 2.38 275.93 2.38 282.04 2.38C291.52 2.38 300.84 2.38 310.32 2.32C313.37 2.32 316.42 2.32 319.48 2.32C325.9 2.32 332.33 2.32 338.76 2.32C339.24 2.32 339.88 2.32 340.37 2.32C325.9 2.38 311.28 2.44 296.82 2.56C290.71 2.62 284.77 2.62 278.66 2.68C276.09 2.68 273.36 2.68 270.79 2.74C261.95 2.79 253.27 2.91 244.43 2.97C234.31 3.09 224.19 3.15 214.06 3.27C212.3 3.27 210.69 3.33 208.92 3.33C203.46 3.45 198.16 3.51 192.69 3.63C181.77 3.81 170.84 3.99 159.91 4.16C158.31 4.16 156.7 4.22 155.09 4.28C149.79 4.4 144.33 4.58 139.02 4.7C129.38 4.94 119.9 5.18 110.26 5.42C107.69 5.48 104.96 5.59 102.39 5.65C96.28 5.83 90.17 6.01 84.07 6.25C76.35 6.49 68.48 6.73 60.77 6.97C50 7.32 39.07 7.68 28.31 8.04C25.74 8.1 23.16 8.22 20.43 8.28C15.77 8.45 11.11 8.63 6.45 8.81C5.97 8.81 5.49 8.93 5.49 9.17C5.49 9.35 5.97 9.53 6.45 9.53C8.22 9.53 9.83 9.59 11.6 9.59C11.44 9.77 11.27 9.94 11.27 10.12C11.27 10.78 12.72 11.37 14.65 11.37C27.99 11.08 41.16 10.72 54.5 10.48C66.07 10.3 77.64 10.06 89.21 9.88C101.9 9.65 114.76 9.41 127.45 9.23C131.47 9.17 135.49 9.11 139.5 8.99C140.63 8.99 141.75 8.93 143.04 8.93C163.61 8.75 184.18 8.51 204.74 8.34C215.67 8.22 226.76 8.1 237.69 8.04C241.7 7.98 245.56 7.98 249.58 7.92C270.63 7.8 291.68 7.68 312.73 7.56C321.73 7.5 330.72 7.44 339.72 7.38C347.44 7.32 355.15 7.32 362.86 7.2C369.29 7.14 375.56 7.03 381.98 6.97C385.2 6.91 388.41 6.91 391.47 6.85C398.7 6.67 405.93 6.49 413.16 6.31C412.68 6.55 412.68 6.91 412.84 7.14C413 7.44 413.48 7.68 414.28 7.8C414.93 7.92 415.89 8.04 416.53 7.92C418.14 7.68 419.75 7.44 421.19 7.2C421.19 7.2 421.19 7.2 421.03 7.2C421.19 7.2 421.19 7.14 421.35 7.14C421.52 7.14 421.68 7.08 421.68 7.08L421.52 7.08C422.32 6.97 423.12 6.85 424.09 6.67C424.89 6.55 425.85 6.37 426.66 6.25C427.62 6.07 428.42 5.89 429.39 5.71C430.35 5.54 431 5.06 431 4.64C431 4.4 430.83 4.22 430.51 3.99C430.19 3.75 429.39 3.45 428.59 3.39C427.78 3.33 426.98 3.27 426.18 3.27C426.01 3.27 425.85 3.27 425.69 3.27C425.21 3.27 424.57 3.27 424.09 3.33C422.8 3.39 421.68 3.45 420.39 3.45C419.43 3.45 418.46 3.51 417.34 3.51C414.6 3.57 412.03 3.63 409.3 3.75C408.66 3.75 407.86 3.81 407.21 3.81C407.53 3.69 407.7 3.57 407.7 3.45C407.86 3.33 407.86 3.21 407.86 3.09C407.86 3.03 407.86 2.91 408.02 2.85C408.02 2.74 408.02 2.62 407.86 2.56C407.86 2.56 408.02 2.56 408.02 2.5C408.5 2.38 408.98 2.26 409.3 2.02C409.62 1.84 409.78 1.6 409.78 1.37C409.78 1.13 409.62 0.95 409.3 0.71C409.14 0.65 408.98 0.53 408.82 0.47C408.34 0.29 407.86 0.23 407.37 0.17C406.41 0.05 405.29 0 404.16 0C403.2 0 402.39 0 401.43 0C400.14 0 398.86 0 397.57 0C395.8 0 393.88 0 392.11 0C387.29 0 382.47 0 377.65 0C373.15 0 368.49 0 363.99 0C359.81 0 355.79 0 351.61 0C335.06 0 318.67 0.05 302.12 0.11C289.75 0.17 277.38 0.23 265 0.23C259.54 0.23 253.92 0.29 248.45 0.35C236.08 0.47 223.71 0.53 211.33 0.65C207.8 0.65 204.26 0.71 200.73 0.71C198.64 0.71 196.71 0.77 194.62 0.77C182.41 0.95 170.2 1.13 157.98 1.31C154.29 1.37 150.59 1.42 146.74 1.48C144.65 1.48 142.56 1.54 140.47 1.6C128.26 1.84 116.21 2.08 103.99 2.32C97.73 2.44 91.46 2.56 85.19 2.74C74.43 2.97 63.66 3.21 53.05 3.51C43.73 3.75 34.41 3.93 25.09 4.11C23.65 4.16 22.2 4.16 20.59 4.22C18.18 4.28 15.77 4.28 13.36 4.34C11.27 4.4 9.19 4.4 6.94 4.4C6.78 4.22 6.13 4.05 5.65 4.05C4.2 4.11 2.92 4.16 1.47 4.22C0.83 4.22 0.19 4.34 0.03 4.64C-0.13 4.94 0.35 5.24 0.99 5.3C1.63 5.36 2.12 5.42 2.76 5.48C3.4 5.54 3.88 5.54 4.53 5.54C6.13 5.77 7.58 5.77 9.19 5.83ZM385.2 3.87C387.13 3.87 389.22 3.87 391.14 3.87C391.31 4.05 391.63 4.16 391.95 4.28C391.14 4.28 390.34 4.34 389.7 4.34C388.25 4.34 386.81 4.4 385.36 4.4C378.93 4.46 372.67 4.58 366.24 4.64C363.35 4.7 360.45 4.76 357.56 4.76C353.06 4.76 348.4 4.82 343.9 4.82C333.46 4.88 323.17 4.94 312.73 5C292.48 5.12 272.39 5.24 252.15 5.36C237.69 5.42 223.22 5.59 208.76 5.77C187.07 6.01 165.22 6.19 143.52 6.43C139.18 6.49 134.85 6.55 130.51 6.67C118.13 6.91 105.76 7.08 93.39 7.32C81.33 7.56 69.12 7.74 57.07 7.98C55.95 7.98 54.82 8.04 53.7 8.04C56.91 7.92 60.29 7.86 63.5 7.74C74.91 7.44 86.32 7.08 97.73 6.79C101.74 6.67 105.76 6.55 109.62 6.43C111.71 6.37 113.79 6.31 115.72 6.31C127.61 6.07 139.5 5.77 151.39 5.54C153.64 5.48 156.06 5.42 158.31 5.36C161.68 5.3 165.06 5.24 168.27 5.24C180.48 5.06 192.69 4.88 204.91 4.7C207.64 4.64 210.37 4.64 212.94 4.58C213.58 4.58 214.39 4.58 215.03 4.58C216.96 4.58 218.89 4.58 220.65 4.52C232.87 4.4 245.24 4.34 257.45 4.22C263.07 4.16 268.7 4.11 274.32 4.11C292.48 4.05 310.8 3.99 328.96 3.93C348.08 3.93 366.72 3.93 385.2 3.87Z" fill="#26A4FF" fill-opacity="1.000000" fill-rule="nonzero"/>
</svg>
