<svg width="24" height="24" viewBox="0 0 24 24" fill="none" xmlns="http://www.w3.org/2000/svg">
<path fill-rule="evenodd" clip-rule="evenodd" d="M23.906 11.4384C23.9042 11.6254 23.891 11.8028 23.7859 12.0852C23.6606 12.4399 23.4672 12.7646 23.2173 13.0417C22.9675 13.3187 22.6664 13.542 22.3309 13.6973C21.9954 13.8535 21.6334 13.9399 21.2652 13.9505C20.8971 13.9611 20.5307 13.8976 20.1872 13.7617C19.8438 13.6258 19.5303 13.4211 19.2646 13.1599C18.9988 12.8987 18.7878 12.5855 18.6421 12.2396C18.5671 12.0604 18.5185 11.8566 18.4885 11.6484C18.3057 8.17707 15.4319 5.41785 11.9126 5.41785C8.39337 5.41785 5.32704 8.36502 5.32704 11.9996C5.32704 15.6341 8.27506 18.5804 11.9117 18.5804C15.0946 18.5804 17.7495 16.3241 18.3631 13.3249C18.6139 13.6708 18.9088 13.9832 19.2619 14.2232C19.4721 14.3652 19.6999 14.5047 19.8791 14.5761C20.3285 14.7535 20.8079 14.8373 21.2891 14.8232C21.7703 14.8091 22.2444 14.6961 22.6823 14.4923C22.7635 14.4544 22.8562 14.3988 22.9551 14.3317C23.2712 14.1182 23.5634 13.8658 23.8151 13.5799C23.0416 19.4601 18.0073 24 11.9117 24C5.28113 23.9991 -0.0939941 18.6263 -0.0939941 11.9996C-0.0939941 5.37285 5.28113 0 11.9126 0C18.5441 0 23.6129 5.07195 23.906 11.4384Z" fill="#2B44E7"/>
</svg>
