<?xml version="1.0" standalone="no"?>
<!DOCTYPE svg PUBLIC "-//W3C//DTD SVG 20010904//EN"
 "http://www.w3.org/TR/2001/REC-SVG-20010904/DTD/svg10.dtd">
<svg version="1.0" xmlns="http://www.w3.org/2000/svg"
 width="300.000000pt" height="300.000000pt" viewBox="0 0 300.000000 300.000000"
 preserveAspectRatio="xMidYMid meet">
<metadata>
Created by potrace 1.10, written by Peter Selinger 2001-2011
</metadata>
<g transform="translate(0.000000,300.000000) scale(0.100000,-0.100000)"
fill="#203e65" stroke="none">
<path d="M725 1611 c-27 -16 -30 -23 -30 -67 l0 -49 78 -3 77 -3 0 55 c0 51
-2 55 -32 70 -39 20 -55 19 -93 -3z m65 1 c0 -5 -7 -9 -15 -9 -8 0 -15 4 -15
9 0 4 7 8 15 8 8 0 15 -4 15 -8z m50 -40 c0 -15 -9 -18 -65 -18 -56 0 -65 3
-65 18 0 15 9 18 65 18 56 0 65 -3 65 -18z m0 -59 c0 -9 -19 -13 -65 -13 -46
0 -65 4 -65 13 0 9 19 13 65 13 46 0 65 -4 65 -13z"/>
<path d="M570 1561 c0 -5 20 -24 45 -42 l45 -32 -33 -38 c-17 -20 -38 -38 -44
-38 -25 -2 -13 -21 27 -43 22 -13 40 -29 40 -36 0 -8 23 -37 51 -65 40 -40 57
-51 77 -48 26 3 122 93 122 114 0 7 18 22 40 35 40 23 52 42 26 42 -8 0 -28
18 -45 39 -25 31 -29 41 -18 48 29 17 79 64 74 69 -3 3 -36 -18 -73 -47 -66
-53 -67 -53 -132 -51 -60 2 -70 6 -121 45 -71 54 -81 60 -81 48z m367 -179
c-8 -10 -18 -4 -48 30 -28 32 -34 46 -26 56 8 10 18 4 48 -30 28 -32 34 -46
26 -56z m-247 76 c-1 -23 -60 -80 -76 -74 -13 5 -10 14 16 46 31 39 60 53 60
28z m179 -48 c35 -44 37 -50 15 -50 -17 0 -116 -93 -127 -120 -4 -8 -5 -1 -1
15 4 24 3 28 -7 18 -17 -17 -29 -16 -29 2 0 8 5 15 11 15 5 0 7 5 4 10 -5 8
-11 7 -21 -1 -19 -15 -30 -4 -15 15 8 10 9 16 1 21 -5 3 -10 1 -10 -4 0 -6 -7
-11 -15 -11 -20 0 -19 13 4 34 14 13 39 18 92 19 63 2 74 5 77 21 3 11 -7 28
-25 42 -24 20 -25 22 -6 18 11 -3 35 -23 52 -44z m-62 18 c18 -13 33 -26 33
-30 0 -16 -21 -18 -41 -5 -18 13 -24 13 -47 1 -15 -8 -34 -11 -43 -9 -9 3 -22
-1 -29 -10 -7 -8 -19 -15 -27 -15 -9 0 -1 16 23 45 43 53 78 59 131 23z m83
-99 c0 -5 -7 -9 -15 -9 -8 0 -15 -7 -15 -15 0 -15 -12 -20 -23 -9 -8 9 35 54
45 48 5 -3 8 -9 8 -15z m-63 -65 c-9 -9 -28 6 -21 18 4 6 10 6 17 -1 6 -6 8
-13 4 -17z m-27 -12 c0 -13 -12 -22 -22 -16 -10 6 -1 24 13 24 5 0 9 -4 9 -8z"/>
<path d="M1193 1445 c0 -55 2 -88 4 -72 5 34 16 34 38 1 9 -14 19 -23 22 -20
3 3 -2 17 -11 32 -17 24 -17 27 0 45 9 10 13 19 7 19 -5 0 -18 -10 -29 -21
-19 -21 -19 -21 -25 47 -5 63 -5 60 -6 -31z"/>
<path d="M1340 1445 c0 -57 4 -95 10 -95 6 0 10 38 10 95 0 57 -4 95 -10 95
-6 0 -10 -38 -10 -95z"/>
<path d="M1404 1445 c0 -55 1 -76 3 -47 2 29 2 74 0 100 -2 26 -3 2 -3 -53z"/>
<path d="M1068 1509 c-31 -17 -21 -47 21 -69 48 -24 57 -36 40 -56 -9 -11 -23
-14 -46 -11 -18 3 -33 2 -33 -2 0 -9 34 -21 57 -21 20 0 43 30 43 56 0 19 -8
29 -35 40 -35 14 -54 38 -41 51 3 3 22 6 41 5 21 -1 33 3 30 8 -8 13 -55 12
-77 -1z"/>
<path d="M1527 1439 c2 -99 13 -118 13 -23 l1 69 64 -70 65 -70 0 88 c0 58 -4
87 -11 87 -8 0 -10 -21 -7 -70 l5 -69 -46 51 c-25 28 -52 59 -59 70 -23 31
-27 20 -25 -63z"/>
<path d="M1290 1480 c0 -5 5 -10 10 -10 6 0 10 5 10 10 0 6 -4 10 -10 10 -5 0
-10 -4 -10 -10z"/>
<path d="M1921 1473 c0 -13 -5 -23 -11 -23 -5 0 -10 -5 -10 -11 0 -5 4 -8 9
-4 6 3 12 -16 14 -42 l3 -48 2 47 c2 38 5 46 17 42 8 -4 15 -1 15 5 0 6 -6 11
-14 11 -8 0 -17 10 -19 23 l-4 22 -2 -22z"/>
<path d="M1720 1440 c-11 -11 -20 -27 -20 -35 0 -16 35 -55 49 -55 18 0 41 12
41 21 0 5 -11 7 -24 3 -46 -11 -49 8 -4 28 l43 19 -24 20 c-29 24 -36 24 -61
-1z m54 -9 c3 -5 -8 -14 -24 -20 -24 -8 -30 -7 -30 4 0 21 43 34 54 16z"/>
<path d="M1290 1400 c0 -27 5 -50 10 -50 6 0 10 23 10 50 0 28 -4 50 -10 50
-5 0 -10 -22 -10 -50z"/>
<path d="M1827 1443 c-15 -14 -6 -34 19 -43 28 -11 23 -35 -7 -27 -11 3 -19 1
-19 -3 0 -15 19 -22 40 -15 29 9 25 44 -6 55 -29 12 -22 34 8 24 14 -4 18 -2
14 5 -8 12 -39 15 -49 4z"/>
</g>
</svg>
