 <svg  version="1.0" xmlns="http://www.w3.org/2000/svg"  width="300.000000pt" height="300.000000pt" viewBox="0 0 300.000000 300.000000"  preserveAspectRatio="xMidYMid meet">  <g transform="translate(0.000000,300.000000) scale(0.100000,-0.100000)" fill="#203e65" stroke="none"> <path d="M725 1611 c-27 -16 -30 -23 -30 -67 l0 -49 78 -3 77 -3 0 55 c0 51 -2 55 -32 70 -39 20 -55 19 -93 -3z m115 -39 c0 -15 -9 -18 -65 -18 -56 0 -65 3 -65 18 0 15 9 18 65 18 56 0 65 -3 65 -18z m0 -59 c0 -9 -19 -13 -65 -13 -46 0 -65 4 -65 13 0 9 19 13 65 13 46 0 65 -4 65 -13z"/> <path d="M570 1563 c0 -5 19 -24 42 -44 l42 -37 -29 -35 c-17 -20 -36 -36 -42 -36 -24 -2 -13 -18 27 -45 22 -14 40 -31 40 -37 0 -6 23 -34 51 -62 64 -65 84 -64 151 5 26 27 48 54 48 59 0 5 18 21 40 35 41 27 51 44 27 44 -8 0 -28 17 -45 39 l-31 38 45 33 c40 30 55 50 38 50 -3 0 -35 -23 -71 -52 -51 -40 -72 -51 -99 -50 -19 0 -49 1 -68 1 -24 1 -50 14 -96 51 -65 52 -70 55 -70 43z m343 -128 c31 -37 35 -46 22 -51 -22 -9 -87 66 -73 84 6 6 11 12 12 12 1 0 19 -20 39 -45z m-223 23 c-1 -23 -60 -80 -76 -74 -13 5 -10 14 16 46 31 39 60 53 60 28z m117 -30 c18 -13 33 -26 33 -30 0 -16 -21 -18 -41 -5 -18 13 -24 13 -47 1 -15 -8 -34 -11 -43 -9 -9 3 -22 -1 -29 -10 -7 -8 -19 -15 -27 -15 -9 0 0 17 24 45 44 53 77 58 130 23z m61 -17 c37 -46 38 -51 15 -51 -18 0 -111 -89 -126 -119 -4 -9 -5 -3 -1 14 4 24 3 28 -7 18 -21 -21 -32 -15 -24 14 5 23 4 25 -10 13 -20 -17 -32 -5 -15 15 12 14 10 15 -13 10 -32 -8 -35 5 -8 29 14 13 39 18 92 19 64 2 74 5 77 21 3 12 -5 27 -19 37 -18 14 -20 19 -8 19 9 0 30 -18 47 -39z"/> <path d="M1191 1538 c-5 -18 -2 -180 3 -185 3 -4 6 6 6 20 0 34 13 34 35 1 9 -14 19 -23 22 -20 3 3 -2 17 -11 32 -17 24 -17 27 0 45 9 10 13 19 7 19 -5 0 -18 -10 -29 -21 -19 -21 -19 -21 -25 47 -3 38 -6 66 -8 62z"/> <path d="M1340 1445 c0 -57 4 -95 10 -95 6 0 10 38 10 95 0 57 -4 95 -10 95 -6 0 -10 -38 -10 -95z"/> <path d="M1400 1535 c-4 -37 0 -178 4 -182 3 -4 6 37 6 90 0 53 -2 97 -5 97 -3 0 -5 -2 -5 -5z"/> <path d="M1062 1508 c-23 -23 -13 -47 27 -68 48 -24 57 -36 40 -56 -9 -11 -23 -14 -46 -11 -41 7 -44 -9 -4 -18 42 -9 71 9 71 45 0 24 -7 33 -40 50 -53 27 -53 50 1 50 24 0 38 4 34 10 -9 14 -68 13 -83 -2z"/> <path d="M1523 1440 c-1 -44 2 -82 7 -85 6 -4 10 21 10 62 l0 68 65 -70 64 -70 1 88 c0 56 -4 87 -11 87 -7 0 -10 -23 -7 -65 1 -36 1 -65 -2 -64 -3 0 -30 29 -60 65 -30 35 -57 64 -60 64 -3 0 -6 -36 -7 -80z"/> <path d="M1920 1471 c0 -10 -6 -22 -12 -25 -10 -5 -10 -7 0 -12 6 -3 12 -23 12 -45 0 -23 4 -38 9 -34 5 3 7 21 4 40 -4 28 -2 35 11 35 9 0 16 5 16 10 0 6 -7 10 -16 10 -10 0 -14 6 -11 15 4 8 2 17 -3 20 -6 4 -10 -3 -10 -14z"/> <path d="M1720 1440 c-11 -11 -20 -27 -20 -35 0 -16 35 -55 49 -55 18 0 41 12 41 21 0 5 -11 7 -24 3 -46 -11 -49 8 -4 28 l43 19 -24 20 c-29 24 -36 24 -61 -1z m54 -9 c3 -5 -8 -14 -24 -20 -31 -10 -39 -4 -18 17 14 14 35 16 42 3z"/> <path d="M1290 1400 c0 -27 5 -50 10 -50 6 0 10 23 10 50 0 28 -4 50 -10 50 -5 0 -10 -22 -10 -50z"/> <path d="M1824 1435 c-7 -18 3 -35 22 -35 8 0 14 -7 14 -16 0 -11 -6 -15 -20 -11 -11 3 -20 1 -20 -3 0 -15 19 -22 40 -15 26 8 26 45 0 52 -11 3 -20 12 -20 20 0 10 6 12 21 8 15 -5 19 -4 15 4 -10 16 -46 14 -52 -4z"/> </g> </svg> 