<svg width="116.415039" height="28.000000" viewBox="0 0 116.415 28" fill="none" xmlns="http://www.w3.org/2000/svg" xmlns:xlink="http://www.w3.org/1999/xlink">
	<desc>
			Created with Pixso.
	</desc>
	<defs/>
	<path id="Vector" d="M27.34 26.13L20.88 26.13L18.91 21.33L8.14 21.33L6.34 26.13L0 26.13L9.7 1.87L16.65 1.87L27.34 26.13ZM13.26 7.67L9.73 17.1L17.14 17.1L13.26 7.67ZM50.79 1.87L56.01 1.87L56.01 26.13L50.01 26.13L50.01 10.98L43.52 18.59L42.6 18.59L36.11 10.98L36.11 26.13L30.12 26.13L30.12 1.87L35.34 1.87L43.06 10.87L50.79 1.87ZM71.21 1.87C79.99 1.87 84.51 7.38 84.51 14.04C84.51 21.01 80.13 26.13 70.54 26.13L60.59 26.13L60.59 1.87L71.21 1.87ZM66.59 21.69L70.5 21.69C76.53 21.69 78.33 17.56 78.33 14C78.33 9.84 76.11 6.32 70.43 6.32L66.59 6.32L66.59 21.69L66.59 21.69ZM96.44 7.62L88.88 0L116.41 0L116.41 27.76L108.85 20.13L108.85 7.62L96.44 7.62ZM96.43 9.15L88.65 17L88.65 28L99.54 28L107.33 20.14L96.43 20.14L96.43 9.15Z" fill="#202430" fill-opacity="1.000000" fill-rule="nonzero"/>
</svg>
