<svg width="81.916992" height="31.995117" viewBox="0 0 81.917 31.9951" fill="none" xmlns="http://www.w3.org/2000/svg" xmlns:xlink="http://www.w3.org/1999/xlink">
	<desc>
			Created with Pixso.
	</desc>
	<defs/>
	<path id="Vector" d="M5.64 31.54L5.64 10.02L0 10.02L0 31.52L5.64 31.52L5.64 31.54ZM43.01 31.76L43.01 26.49C42.19 26.49 41.49 26.45 40.99 26.36C40.39 26.28 39.95 26.06 39.65 25.77C39.36 25.47 39.17 25.04 39.06 24.47C38.98 23.94 38.93 23.24 38.93 22.39L38.93 14.89L43.01 14.89L43.01 10.02L38.93 10.02L38.93 1.65L33.29 1.65L33.29 22.45C33.29 24.21 33.44 25.7 33.73 26.89C34.03 28.06 34.54 29.02 35.24 29.74C35.93 30.46 36.86 30.97 37.98 31.29C39.12 31.61 40.56 31.76 42.27 31.76L43.01 31.76ZM75.32 31.54L75.32 0L69.67 0L69.67 31.54L75.32 31.54ZM27.86 12.15C26.29 10.45 24.09 9.6 21.3 9.6C19.95 9.6 18.7 9.87 17.6 10.43C16.48 10.98 15.55 11.74 14.79 12.72L14.5 13.12L14.5 10.02L8.94 10.02L8.94 31.52L14.54 31.52L14.54 20.07L14.54 20.48C14.6 18.46 15.09 16.97 16.02 16.01C17.01 14.99 18.22 14.48 19.59 14.48C21.22 14.48 22.47 14.99 23.29 15.97C24.09 16.95 24.52 18.33 24.52 20.09L24.52 31.52L30.2 31.52L30.2 19.33C30.23 16.27 29.42 13.85 27.86 12.15ZM66.75 20.75C66.75 19.2 66.48 17.76 65.95 16.4C65.4 15.06 64.64 13.87 63.69 12.85C62.72 11.83 61.55 11.04 60.2 10.47C58.85 9.9 57.35 9.62 55.72 9.62C54.18 9.62 52.72 9.92 51.36 10.49C50.01 11.08 48.83 11.87 47.83 12.87C46.84 13.87 46.04 15.06 45.47 16.42C44.87 17.78 44.6 19.24 44.6 20.79C44.6 22.34 44.87 23.81 45.42 25.17C45.97 26.53 46.76 27.72 47.73 28.72C48.7 29.72 49.91 30.52 51.3 31.1C52.7 31.69 54.24 31.99 55.89 31.99C60.67 31.99 63.63 29.8 65.4 27.76L61.34 24.66C60.5 25.68 58.47 27.06 55.93 27.06C54.35 27.06 53.04 26.7 52.04 25.96C51.05 25.23 50.37 24.21 50.01 22.96L49.95 22.77L66.75 22.77L66.75 20.75ZM49.99 18.78C49.99 17.2 51.79 14.46 55.66 14.44C59.52 14.44 61.34 17.18 61.34 18.75L49.99 18.78ZM81.74 28.83C81.64 28.57 81.49 28.36 81.3 28.17C81.11 27.98 80.9 27.83 80.64 27.72C80.39 27.61 80.12 27.55 79.84 27.55C79.54 27.55 79.29 27.61 79.04 27.72C78.78 27.83 78.57 27.98 78.38 28.17C78.19 28.36 78.04 28.57 77.94 28.83C77.83 29.08 77.77 29.36 77.77 29.63C77.77 29.93 77.83 30.18 77.94 30.44C78.04 30.69 78.19 30.91 78.38 31.1C78.57 31.29 78.78 31.44 79.04 31.54C79.29 31.65 79.57 31.71 79.84 31.71C80.14 31.71 80.39 31.65 80.64 31.54C80.9 31.44 81.11 31.29 81.3 31.1C81.49 30.91 81.64 30.69 81.74 30.44C81.85 30.18 81.91 29.91 81.91 29.63C81.91 29.36 81.85 29.08 81.74 28.83L81.74 28.83ZM81.4 30.31C81.32 30.52 81.19 30.72 81.04 30.86C80.9 31.01 80.71 31.14 80.5 31.23C80.28 31.31 80.07 31.35 79.82 31.35C79.59 31.35 79.35 31.31 79.14 31.23C78.93 31.14 78.74 31.01 78.59 30.86C78.45 30.72 78.32 30.52 78.23 30.31C78.15 30.1 78.11 29.89 78.11 29.63C78.11 29.4 78.15 29.16 78.23 28.95C78.32 28.74 78.45 28.55 78.59 28.4C78.74 28.25 78.93 28.12 79.14 28.04C79.35 27.95 79.57 27.91 79.82 27.91C80.05 27.91 80.28 27.95 80.5 28.04C80.71 28.12 80.9 28.25 81.04 28.4C81.19 28.55 81.32 28.74 81.4 28.95C81.49 29.16 81.53 29.38 81.53 29.63C81.53 29.89 81.49 30.1 81.4 30.31ZM80.22 29.82C80.39 29.8 80.52 29.74 80.62 29.63C80.73 29.53 80.79 29.38 80.79 29.16C80.79 28.93 80.73 28.76 80.58 28.63C80.45 28.51 80.22 28.44 79.95 28.44L79.02 28.44L79.02 30.84L79.46 30.84L79.46 29.87L79.78 29.87L80.37 30.84L80.83 30.84L80.22 29.82ZM79.99 29.46L79.46 29.46L79.46 28.78L79.99 28.78C80.05 28.78 80.12 28.8 80.18 28.83C80.24 28.85 80.28 28.89 80.3 28.93C80.35 28.97 80.35 29.04 80.35 29.12C80.35 29.21 80.33 29.27 80.3 29.31C80.26 29.36 80.22 29.4 80.18 29.42C80.12 29.44 80.05 29.46 79.99 29.46L79.99 29.46Z" fill="#202430" fill-opacity="1.000000" fill-rule="nonzero"/>
</svg>
