<svg width="101.721680" height="30.098633" viewBox="0 0 101.722 30.0986" fill="none" xmlns="http://www.w3.org/2000/svg" xmlns:xlink="http://www.w3.org/1999/xlink">
	<desc>
			Created with Pixso.
	</desc>
	<defs/>
	<path id="Vector" d="M7.55 29.7C6.98 29.7 6.69 29.45 6.69 28.96L6.69 28.8C6.69 28.49 6.95 28.01 7.48 27.38C8.03 26.73 8.31 26.08 8.31 25.42L8.31 4.77L6.32 4.77C5.74 4.77 5.21 5.02 4.74 5.52C4.29 6.01 3.92 6.57 3.65 7.17C3.4 7.75 3.09 8.28 2.71 8.78C2.33 9.28 1.96 9.53 1.58 9.53L0.95 9.53C0.24 9.53 -0.07 9.14 0.01 8.39L0.76 3.05C0.83 2.24 1.26 1.83 2.03 1.83L21.34 1.83C22.09 1.83 22.51 2.24 22.61 3.05L23.4 8.42C23.45 8.77 23.39 9.04 23.21 9.25C23.04 9.43 22.79 9.52 22.46 9.52L21.83 9.52C21.45 9.52 21.07 9.28 20.7 8.78C20.32 8.28 20 7.75 19.72 7.17C19.45 6.57 19.07 6.02 18.6 5.52C18.12 5.02 17.59 4.77 17.02 4.77L15.07 4.77L15.07 25.42C15.07 26.08 15.33 26.73 15.85 27.38C16.41 28.01 16.68 28.48 16.68 28.8L16.68 28.96C16.68 29.45 16.38 29.7 15.78 29.7L7.55 29.7ZM39.35 25.42C39.42 26.05 39.56 26.56 39.76 26.95C39.99 27.32 40.2 27.56 40.4 27.66C40.63 27.77 40.83 27.9 41 28.05C41.18 28.21 41.27 28.41 41.27 28.64C41.27 29.5 39.85 29.94 37.02 29.94C35.87 29.94 35.01 29.79 34.43 29.5C33.88 29.22 33.53 28.73 33.38 28.05C32.43 29.41 30.84 30.09 28.61 30.09C26.51 30.09 24.79 29.58 23.46 28.56C22.16 27.54 21.51 26.06 21.51 24.13C21.51 22.24 22.16 20.78 23.46 19.73C24.77 18.66 26.37 18.12 28.27 18.12C29.75 18.12 31.01 18.45 32.07 19.1L32.07 18.98C31.81 16.39 31.53 14.64 31.2 13.72C30.9 12.81 30.3 12.35 29.4 12.35C28.82 12.35 28.36 12.63 28.01 13.17C27.65 13.73 27.39 14.34 27.22 14.98C27.06 15.65 26.76 16.26 26.32 16.79C25.87 17.34 25.27 17.61 24.52 17.61C23.74 17.61 23.1 17.37 22.6 16.9C22.12 16.43 21.89 15.82 21.89 15.06C21.89 13.54 22.61 12.4 24.07 11.64C25.52 10.86 27.29 10.47 29.4 10.47C31.9 10.47 33.97 11.19 35.59 12.63C37.25 14.04 38.22 15.96 38.52 18.4L39.35 25.42ZM30.67 28.09C31.25 28.09 31.71 27.8 32.06 27.23C32.44 26.65 32.63 26 32.63 25.27L32.48 23.46C32.23 21.29 31.45 20.2 30.15 20.2C29.57 20.2 29.11 20.45 28.76 20.95C28.41 21.42 28.23 22.06 28.23 22.87C28.23 24.34 28.45 25.58 28.87 26.6C29.32 27.59 29.92 28.09 30.67 28.09L30.67 28.09ZM42.91 29.7C42.33 29.7 42.05 29.45 42.05 28.96L42.05 28.8C42.05 28.49 42.28 28.01 42.76 27.38C43.26 26.73 43.51 26.08 43.51 25.42L43.51 7.48C43.51 6.8 43.26 6.15 42.76 5.52C42.28 4.87 42.05 4.41 42.05 4.15L42.05 3.99C42.05 3.7 42.32 3.4 42.87 3.09L48.54 0.18C49.07 -0.05 49.48 -0.07 49.78 0.14C50.11 0.33 50.27 0.61 50.27 1.01L50.27 25.42C50.27 26.08 50.54 26.73 51.1 27.38C51.65 28.01 51.92 28.48 51.92 28.8L51.92 28.96C51.92 29.45 51.62 29.7 51.02 29.7L42.91 29.7ZM73.5 26.4C73.63 26.59 74.01 26.93 74.63 27.42C75.28 27.92 75.61 28.38 75.61 28.8L75.61 28.96C75.61 29.45 75.32 29.7 74.75 29.7L66.86 29.7C66.28 29.7 66 29.44 66 28.92L66 28.8C66 28.49 66.18 28.1 66.56 27.66C66.93 27.19 67.01 26.77 66.78 26.4L63.48 21.26L61.6 23.07L61.6 25.42C61.6 26.08 61.88 26.73 62.43 27.38C63 28.01 63.29 28.48 63.29 28.8L63.29 28.96C63.29 29.45 62.99 29.7 62.39 29.7L54.28 29.7C53.68 29.7 53.38 29.45 53.38 28.96L53.38 28.8C53.38 28.49 53.63 28.01 54.13 27.38C54.63 26.73 54.88 26.08 54.88 25.42L54.88 7.48C54.88 6.8 54.58 6.15 53.98 5.52C53.38 4.87 53.08 4.41 53.08 4.15L53.08 3.99C53.08 3.7 53.35 3.4 53.9 3.09L59.91 0.18C60.44 -0.03 60.85 -0.04 61.15 0.14C61.45 0.33 61.6 0.61 61.6 1.01L61.6 19.65L66.67 15.1C66.97 14.89 67.08 14.63 67.01 14.31C66.96 14.01 66.83 13.72 66.63 13.49C66.44 13.2 66.24 12.91 66.03 12.63C65.83 12.31 65.73 12.04 65.73 11.8L65.73 11.64C65.73 11.12 66.02 10.86 66.6 10.86L72.53 10.86C73.11 10.86 73.39 11.11 73.39 11.61L73.39 11.76C73.39 12.08 73.22 12.4 72.87 12.74C72.52 13.06 72.02 13.44 71.37 13.88C70.83 14.23 70.33 14.62 69.87 15.06L67.46 17.37L73.5 26.4ZM81.08 8.54C79.8 8.54 78.76 8.18 77.96 7.44C77.16 6.69 76.76 5.74 76.76 4.62C76.76 3.49 77.16 2.56 77.96 1.83C78.76 1.07 79.8 0.69 81.08 0.69C82.33 0.69 83.36 1.07 84.16 1.83C84.96 2.56 85.36 3.49 85.36 4.62C85.36 5.74 84.96 6.69 84.16 7.44C83.36 8.18 82.33 8.54 81.08 8.54ZM77.06 29.7C76.46 29.7 76.16 29.45 76.16 28.96L76.16 28.8C76.16 28.49 76.41 28 76.91 27.35C77.41 26.69 77.66 26.04 77.66 25.38L77.66 17.93C77.66 17.25 77.41 16.59 76.91 15.96C76.41 15.31 76.16 14.86 76.16 14.63L76.16 14.47C76.16 14.16 76.45 13.86 77.02 13.57L82.69 10.66C83.22 10.43 83.63 10.4 83.93 10.58C84.23 10.77 84.38 11.07 84.38 11.49L84.38 25.38C84.38 26.04 84.66 26.69 85.21 27.35C85.79 28 86.07 28.48 86.07 28.8L86.07 28.96C86.07 29.45 85.76 29.7 85.13 29.7L77.06 29.7ZM95.48 30.09C93.58 30.09 92.08 29.46 90.98 28.21C89.9 26.95 89.36 25.16 89.36 22.83L89.36 13.53L87.93 13.53C87.7 13.53 87.47 13.45 87.3 13.29C87.14 13.1 87.06 12.87 87.07 12.63L87.07 11.76C87.07 11.16 87.36 10.86 87.93 10.86L88.65 10.86C89.8 10.86 90.79 10.51 91.62 9.8C92.44 9.07 92.98 8.1 93.23 6.89C93.36 6.21 93.69 5.87 94.24 5.87L95.11 5.87C95.78 5.87 96.12 6.21 96.12 6.89L96.12 10.86L99.99 10.86C100.24 10.86 100.44 10.95 100.59 11.13C100.77 11.29 100.85 11.5 100.85 11.76L100.85 12.63C100.86 12.75 100.83 12.87 100.79 12.99C100.74 13.1 100.68 13.2 100.59 13.29C100.51 13.37 100.42 13.43 100.32 13.47C100.21 13.52 100.1 13.53 99.99 13.53L96.12 13.53L96.12 22.95C96.12 23.6 96.28 24.13 96.61 24.52C96.93 24.89 97.34 25.07 97.81 25.07C98.89 25.07 99.71 24.59 100.29 23.62C100.47 23.38 100.67 23.25 100.89 23.22C101.12 23.17 101.3 23.21 101.45 23.34C101.63 23.47 101.72 23.66 101.72 23.89C101.72 25.54 101.15 26.99 100.03 28.25C98.93 29.48 97.41 30.09 95.48 30.09Z" fill="#202430" fill-opacity="1.000000" fill-rule="nonzero"/>
</svg>
