<svg width="182.616211" height="23.971680" viewBox="0 0 182.616 23.9717" fill="none" xmlns="http://www.w3.org/2000/svg" xmlns:xlink="http://www.w3.org/1999/xlink">
	<desc>
			Created with Pixso.
	</desc>
	<defs/>
	<path id="Vector" d="M156.06 9.5L156.06 23.97L160.65 23.97L160.65 14.33L177.43 14.33L177.43 23.97L182.02 23.97L182.02 9.5L156.06 9.5ZM160.13 4.82L177.83 4.82C180.32 4.35 182.09 2.11 182.61 0L155.34 0C155.87 2.11 157.7 4.29 160.13 4.82ZM142.1 23.97C144.4 22.98 145.64 21.26 146.17 19.28L125.52 19.28L125.52 0.06L120.87 0.06L120.87 23.97L142.1 23.97ZM86.45 4.75L102.84 4.75C105.33 4.02 107.36 2.11 107.89 0.06L81.93 0.06L81.93 14.19L103.17 14.19L103.17 19.15L86.52 19.15C83.9 19.87 81.67 21.66 80.55 23.97L107.76 23.97L107.76 9.5L86.52 9.5L86.45 4.75ZM46.08 4.82L63.77 4.82C66.26 4.35 68.1 2.11 68.56 0L41.22 0C41.75 2.11 43.58 4.29 46.08 4.82ZM46.08 14.26L63.77 14.26C66.26 13.8 68.1 11.55 68.56 9.44L41.22 9.44C41.75 11.55 43.58 13.73 46.08 14.26ZM46.08 23.97L63.77 23.97C66.26 23.5 68.1 21.26 68.56 19.15L41.22 19.15C41.75 21.26 43.58 23.5 46.08 23.97Z" fill="#202430" fill-opacity="1.000000" fill-rule="nonzero"/>
	<path id="Vector" d="M0 0.06C0.52 2.17 2.35 4.29 4.78 4.82L12.25 4.82L12.65 4.95L12.65 23.9L17.3 23.9L17.3 4.95L17.69 4.82L25.17 4.82C27.66 4.16 29.43 2.17 29.95 0.06L29.95 0L0 0.06Z" fill="#202430" fill-opacity="1.000000" fill-rule="nonzero"/>
</svg>
