<svg width="153.539062" height="40.000000" viewBox="0 0 153.539 40" fill="none" xmlns="http://www.w3.org/2000/svg" xmlns:xlink="http://www.w3.org/1999/xlink">
	<desc>
			Created with Pixso.
	</desc>
	<defs>
		<clipPath id="clip69_5492">
			<rect id="vodafone-2017-logo" rx="0.000000" width="152.539307" height="39.000000" transform="translate(0.500000 0.500000)" fill="white" fill-opacity="0"/>
		</clipPath>
	</defs>
	<g opacity="0.300000">
		<rect id="vodafone-2017-logo" rx="0.000000" width="152.539307" height="39.000000" transform="translate(0.500000 0.500000)" fill="#FFFFFF" fill-opacity="0"/>
		<g clip-path="url(#clip69_5492)">
			<path id="Vector" d="M37.56 20C37.56 25.02 35.58 29.83 32.06 33.38C28.53 36.94 23.76 38.93 18.78 38.93C13.79 38.93 9.02 36.94 5.5 33.38C1.97 29.83 0 25.02 0 20C0 14.97 1.97 10.16 5.5 6.61C9.02 3.06 13.79 1.06 18.78 1.06C23.76 1.06 28.53 3.06 32.06 6.61C35.58 10.16 37.56 14.97 37.56 20Z" fill="#202430" fill-opacity="1.000000" fill-rule="nonzero"/>
			<path id="Vector" d="M18.93 30.55C13.77 30.57 8.4 26.13 8.37 19C8.36 14.28 10.89 9.74 14.11 7.05C17.26 4.42 21.57 2.75 25.47 2.73C25.93 2.71 26.38 2.76 26.83 2.87C25.11 3.25 23.57 4.21 22.46 5.58C21.35 6.95 20.73 8.66 20.7 10.43C20.7 10.56 20.7 10.69 20.72 10.74C26.44 12.14 29.03 15.62 29.05 20.44C29.05 21.78 28.78 23.1 28.27 24.33C27.76 25.56 27.01 26.68 26.07 27.62C25.13 28.55 24.02 29.3 22.79 29.8C21.57 30.3 20.25 30.56 18.93 30.55Z" fill="#FFFFFF" fill-opacity="1.000000" fill-rule="nonzero"/>
			<path id="Vector" d="M49.69 27.84L43.95 14.01L47.71 14.01L51.29 23.19L54.77 14.01L58.35 14.01L52.77 27.84L49.69 27.84ZM68.33 20.86C68.33 20.3 68.27 19.75 68.13 19.21C68.02 18.73 67.81 18.28 67.53 17.88C67.28 17.52 66.95 17.21 66.57 16.99C66.16 16.76 65.7 16.64 65.23 16.65C64.77 16.64 64.3 16.76 63.9 16.99C63.51 17.21 63.18 17.51 62.92 17.88C62.65 18.28 62.45 18.74 62.33 19.22C62.2 19.75 62.13 20.3 62.13 20.86C62.13 21.41 62.2 21.97 62.33 22.5C62.45 22.98 62.64 23.43 62.91 23.84C63.16 24.23 63.5 24.54 63.91 24.76C64.31 24.98 64.77 25.09 65.22 25.08C65.68 25.09 66.14 24.99 66.54 24.77C66.95 24.55 67.29 24.23 67.53 23.84C67.81 23.44 68.01 22.99 68.13 22.51C68.27 21.97 68.34 21.41 68.33 20.86ZM71.79 20.87C71.79 21.77 71.66 22.66 71.38 23.52C71.12 24.37 70.7 25.16 70.16 25.86C69.57 26.6 68.82 27.2 67.96 27.59C67.11 27.99 66.17 28.18 65.23 28.15C64.29 28.18 63.35 27.99 62.5 27.59C61.64 27.19 60.89 26.6 60.3 25.86C59.75 25.16 59.34 24.37 59.07 23.52C58.53 21.8 58.53 19.96 59.07 18.24C59.34 17.4 59.75 16.62 60.3 15.93C60.85 15.24 61.55 14.68 62.34 14.3C63.25 13.87 64.23 13.65 65.23 13.67C66.17 13.65 67.1 13.84 67.95 14.23C68.8 14.62 69.55 15.2 70.15 15.93C70.69 16.61 71.11 17.37 71.38 18.24C71.66 19.1 71.79 19.98 71.79 20.87ZM82.39 17.06C81.79 16.81 81.14 16.67 80.49 16.65C79.98 16.63 79.47 16.73 79.01 16.95C78.55 17.18 78.15 17.52 77.85 17.93C77.57 18.34 77.35 18.79 77.22 19.26C77.08 19.75 77.01 20.26 77.01 20.77C77 21.33 77.07 21.88 77.19 22.42C77.3 22.91 77.49 23.38 77.76 23.8C78.01 24.18 78.34 24.51 78.73 24.75C79.11 24.99 79.57 25.12 80.09 25.12C80.56 25.11 81.01 24.98 81.42 24.75C81.82 24.56 82.15 24.27 82.39 23.91L82.39 17.06ZM82.67 27.84L82.53 26.77C82.17 27.17 81.74 27.5 81.26 27.74C80.57 28.04 79.81 28.17 79.06 28.14C78.3 28.11 77.57 27.91 76.9 27.55C76.18 27.16 75.56 26.61 75.08 25.94C74.57 25.24 74.19 24.46 73.96 23.62C73.7 22.73 73.57 21.8 73.57 20.87C73.57 19.97 73.7 19.09 73.96 18.23C74.22 17.39 74.63 16.61 75.17 15.93C75.76 15.2 76.5 14.61 77.35 14.22C78.2 13.83 79.13 13.64 80.06 13.67C80.79 13.67 81.56 13.81 82.39 14.08L82.39 8.72L85.91 8.72L85.91 27.84L82.67 27.84ZM95.83 21.35C95.06 21.4 94.28 21.5 93.52 21.64C92.75 21.8 92.23 22.06 91.93 22.43C91.65 22.78 91.49 23.21 91.49 23.65C91.49 24.11 91.65 24.47 91.99 24.75C92.4 25.05 92.9 25.2 93.4 25.17C93.85 25.17 94.31 25.08 94.73 24.89C95.14 24.71 95.51 24.46 95.83 24.16L95.83 21.35ZM96.12 27.82L95.98 26.79C95.58 27.23 95.08 27.57 94.53 27.79C93.36 28.26 92.07 28.28 90.89 27.85C90.05 27.56 89.31 27.01 88.8 26.28C88.29 25.54 88.03 24.66 88.05 23.76C88.04 23.16 88.16 22.56 88.42 22.01C88.68 21.46 89.06 20.98 89.53 20.61C90 20.24 90.54 19.94 91.1 19.72C92.18 19.33 93.31 19.09 94.45 18.99L95.82 18.86L95.82 18.66C95.82 17.9 95.62 17.36 95.23 17.03C94.76 16.68 94.19 16.51 93.61 16.54C92.58 16.55 91.58 16.87 90.74 17.48C90.55 17.59 90.38 17.72 90.21 17.86L89.04 15.37C89.6 14.94 90.22 14.59 90.87 14.33C92.58 13.61 94.48 13.49 96.26 13.98C96.87 14.17 97.44 14.5 97.9 14.95C98.37 15.4 98.73 15.94 98.95 16.55C99.22 17.32 99.35 18.13 99.33 18.94L99.33 27.83L96.12 27.82ZM110.23 11.87C109.6 11.59 108.92 11.45 108.23 11.47C107.75 11.47 107.33 11.61 107 11.92C106.67 12.21 106.5 12.69 106.5 13.36L106.5 14.01L109.46 14.01L109.46 16.88L106.53 16.88L106.53 27.84L103 27.84L103 16.88L101.19 16.88L101.19 14.01L103 14.01L103 13.28C103 12.37 103.12 11.61 103.35 10.99C103.53 10.43 103.85 9.93 104.26 9.51C104.68 9.1 105.18 8.79 105.74 8.61C107.36 8.17 109.07 8.28 110.63 8.91L110.23 11.87ZM119.84 20.86C119.84 20.3 119.77 19.75 119.64 19.21C119.52 18.73 119.32 18.28 119.04 17.88C118.79 17.52 118.46 17.21 118.08 16.99C117.67 16.76 117.21 16.64 116.74 16.65C116.27 16.64 115.81 16.76 115.41 16.99C115.02 17.21 114.69 17.51 114.43 17.88C114.15 18.28 113.95 18.74 113.83 19.22C113.56 20.3 113.56 21.43 113.83 22.51C113.95 22.99 114.15 23.44 114.42 23.84C114.66 24.22 115 24.53 115.39 24.76C115.8 24.98 116.27 25.1 116.74 25.09C117.2 25.1 117.65 24.99 118.06 24.77C118.46 24.55 118.8 24.23 119.04 23.84C119.32 23.44 119.52 22.99 119.64 22.51C119.78 21.97 119.84 21.41 119.84 20.86ZM123.3 20.87C123.3 21.77 123.17 22.66 122.89 23.52C122.63 24.37 122.21 25.16 121.67 25.86C121.08 26.6 120.33 27.2 119.47 27.59C118.62 27.99 117.68 28.18 116.74 28.15C115.8 28.18 114.86 27.99 114.01 27.59C113.15 27.19 112.4 26.6 111.81 25.86C111.26 25.16 110.85 24.37 110.58 23.52C110.03 21.8 110.03 19.95 110.58 18.24C110.84 17.4 111.26 16.62 111.8 15.93C112.36 15.24 113.06 14.68 113.85 14.3C114.75 13.87 115.74 13.65 116.74 13.67C117.68 13.65 118.61 13.84 119.46 14.23C120.31 14.62 121.06 15.2 121.66 15.93C122.2 16.61 122.62 17.37 122.89 18.24C123.17 19.1 123.3 19.98 123.3 20.87ZM134.25 27.84L134.25 19.96C134.3 19.09 134.07 18.23 133.6 17.51C133.38 17.23 133.11 17.01 132.79 16.86C132.47 16.71 132.13 16.64 131.78 16.65C131.24 16.65 130.71 16.79 130.25 17.08C129.81 17.35 129.41 17.67 129.04 18.04L129.04 27.84L125.52 27.84L125.52 14.01L128.73 14.01L128.9 15.11C130.01 14.18 131.41 13.67 132.85 13.67C133.58 13.67 134.24 13.78 134.85 14C135.44 14.22 135.98 14.58 136.4 15.05C136.85 15.53 137.18 16.15 137.42 16.91C137.66 17.68 137.78 18.59 137.78 19.66L137.78 27.84L134.25 27.84ZM148.74 19.26C148.72 18.83 148.61 18.41 148.44 18.02C148.3 17.69 148.1 17.4 147.84 17.16C147.4 16.75 146.83 16.52 146.23 16.51C145.58 16.53 144.96 16.77 144.48 17.2C144.19 17.46 143.96 17.78 143.79 18.13C143.62 18.49 143.53 18.87 143.51 19.26L148.74 19.26ZM143.43 21.82C143.5 22.98 143.86 23.82 144.52 24.34C145.24 24.88 146.12 25.15 147.02 25.12C147.85 25.12 148.69 24.96 149.47 24.66C149.76 24.54 150.04 24.41 150.31 24.25C150.49 24.15 150.66 24.02 150.81 23.88L151.76 26.77C151.22 27.14 150.64 27.42 150.02 27.62C148.9 27.96 147.73 28.14 146.55 28.15C145.69 28.15 144.83 28.01 144.01 27.72C143.21 27.44 142.49 26.98 141.89 26.39C141.26 25.75 140.76 24.98 140.44 24.14C140.05 23.11 139.87 22.02 139.89 20.93C139.89 19.76 140.06 18.73 140.39 17.83C140.8 16.6 141.59 15.54 142.64 14.79C143.69 14.04 144.95 13.65 146.23 13.67C147.06 13.67 147.89 13.81 148.66 14.11C149.4 14.39 150.03 14.84 150.57 15.43C151.11 16.04 151.54 16.82 151.85 17.78C152.17 18.73 152.32 19.87 152.32 21.19L152.32 21.82L143.43 21.82Z" fill="#202430" fill-opacity="1.000000" fill-rule="nonzero"/>
		</g>
	</g>
</svg>
